<svg xmlns="http://www.w3.org/2000/svg" viewBox="0 0 473.33 400.54"><defs><style>.cls-1{fill:#cfd0d1;}.cls-2{fill:#c3c4c5;}.cls-3{fill:#fff;}.cls-4{fill:#e7e7e8;}.cls-5{fill:#3b4998;}.cls-6{fill:#ad322e;}</style></defs><g id="Layer_3" data-name="Layer 3"><path class="cls-1" d="M144.77,311.3l-26.85,7.46-28.1,6L66.45,327,37.11,328.7l-18.27.54S8,330.78,5.5,335s-4.74,7.16-2.71,11.84a20,20,0,0,0,13.58,8.54l19.49.41,75.34-12.68,31.08-10.94,10.94-4.47,8.61-3.14,2.84-2.46.39-2-.49-1.62-2.45-4.36-2.35-3.53-2.84-1.22Z" transform="translate(-1.26 -0.66)"/><polygon class="cls-2" points="31.89 243.94 36.07 234.81 42.66 229.28 45.03 227.44 47.03 226.51 130.89 292.49 146.17 306.97 149.46 310.53 141.46 314.03 136.63 315.43 133.52 311.98 112.7 293.22 110.61 293.02 103.23 295.12 96.94 295.53 37.29 248.06 31.89 243.94"/><path d="M93.11,265.2c3.65,2.71,7.34,5.37,11.14,7.87l-.07-.06c-1.61-1.37-3.27-2.68-4.92-4-2.46-2-4.94-3.9-7.43-5.82s-5.1-3.92-7.66-5.88l-6.12-4.68-2.51-1.91q2.67,2.53,5.47,4.9C84.92,259,89,262.13,93.11,265.2Z" transform="translate(-1.26 -0.66)"/><path d="M49.79,255.2c.5.11,3.57,2.72,7.07,4.9-5.23-4.19-16.43-13.19-19.92-16.13,1.09,1.49,6.14,5.33,6.08,6.08,0,.39-3.38-2.59-4.6-3,.61.53,3.53,3,4.24,3.55,1.55,1.3,7.4,6,9.33,7.55C50.76,256.36,48.44,254.89,49.79,255.2Z" transform="translate(-1.26 -0.66)"/><path d="M80.37,279.28c.36-.16,1,.14,2.15.74-4.11-3.15-9.67-7.53-13.26-10.33,1.33,1.63,6.32,5.3,5.41,5.34-.52,0-11.75-9-15.06-10.88,7.44,6.24,28.27,22.13,34.06,26.52C91.46,288.45,79.83,279.53,80.37,279.28Z" transform="translate(-1.26 -0.66)"/><path d="M73.51,78l33.62-21.89h.05c1.15.64,2.29,1.35,3.43,2.09a.06.06,0,0,1,0,.09l-35,22.78a1.67,1.67,0,0,0-.48,2.28l0,0a1.64,1.64,0,0,0,2.27.48l36.19-23.57h.06c.82.59,1.63,1.2,2.44,1.83,0,0,0,.06,0,.08L79,86.33a1.64,1.64,0,0,0-.48,2.27v0a1.64,1.64,0,0,0,2.27.48l38-24.74a.09.09,0,0,1,.07,0c.75.63,1.49,1.28,2.24,1.95a.05.05,0,0,1,0,.08L82.46,91.59A1.64,1.64,0,0,0,82,93.86v0a1.65,1.65,0,0,0,2.28.48l39.4-25.65s0,0,.06,0q1,1,2.1,2a.06.06,0,0,1,0,.09l-39.94,26a1.67,1.67,0,0,0-.48,2.28l0,0a1.64,1.64,0,0,0,2.27.48L128.2,73.24a0,0,0,0,1,.06,0c.66.7,1.32,1.4,2,2.12a.06.06,0,0,1,0,.08L89.31,102.1a1.65,1.65,0,0,0-.49,2.27l0,0a1.65,1.65,0,0,0,2.27.48l41.36-26.94a.06.06,0,0,1,.07,0c.63.72,1.26,1.45,1.88,2.19a0,0,0,0,1,0,.07L92.73,107.36a1.63,1.63,0,0,0-.48,2.27v0a1.65,1.65,0,0,0,2.28.48l42-27.35a0,0,0,0,1,.07,0c.6.74,1.2,1.48,1.79,2.24a.05.05,0,0,1,0,.08l-42.24,27.5a1.66,1.66,0,0,0-.48,2.28l0,0a1.64,1.64,0,0,0,2.27.48l42.47-27.66a0,0,0,0,1,.07,0c.58.76,1.15,1.52,1.72,2.29a0,0,0,0,1,0,.07L99.57,117.87a1.65,1.65,0,0,0-.48,2.27l0,0a1.65,1.65,0,0,0,2.27.48l42.79-27.87a.05.05,0,0,1,.07,0c.55.77,1.11,1.54,1.65,2.32a.06.06,0,0,1,0,.08L103,123.12a1.65,1.65,0,0,0-.48,2.28v0a1.65,1.65,0,0,0,2.28.48l43-28a.07.07,0,0,1,.07,0c.54.78,1.07,1.57,1.6,2.37a.05.05,0,0,1,0,.07l-43,28a1.65,1.65,0,0,0-.48,2.28l0,0a1.64,1.64,0,0,0,2.27.48l43-28a0,0,0,0,1,.07,0c.52.8,1,1.6,1.54,2.4a0,0,0,0,1,0,.07l-43,28a1.65,1.65,0,0,0-.48,2.27l0,0a1.63,1.63,0,0,0,2.27.48l43-28a.06.06,0,0,1,.08,0l1.5,2.43a.06.06,0,0,1,0,.07l-42.9,27.94a1.65,1.65,0,0,0-.48,2.28v0a1.64,1.64,0,0,0,2.27.48l42.81-27.88a.08.08,0,0,1,.08,0l1.45,2.46a0,0,0,0,1,0,.07l-42.71,27.81a1.64,1.64,0,0,0-.48,2.27v0a1.67,1.67,0,0,0,2.28.48l42.56-27.72s.06,0,.07,0l1.42,2.48a.06.06,0,0,1,0,.07l-42.42,27.63a1.65,1.65,0,0,0-.48,2.27l0,0a1.63,1.63,0,0,0,2.27.48l42.23-27.5a.06.06,0,0,1,.07,0c.47.84.93,1.68,1.38,2.51,0,0,0,.06,0,.07l-42,27.38a1.65,1.65,0,0,0-.48,2.28v0a1.64,1.64,0,0,0,2.27.48l41.82-27.23a0,0,0,0,1,.07,0c.46.84.9,1.69,1.35,2.53a.07.07,0,0,1,0,.07L127,159.92a1.64,1.64,0,0,0-.48,2.27v0a1.67,1.67,0,0,0,2.28.48l41.33-26.92s.06,0,.07,0l1.32,2.55a.06.06,0,0,1,0,.07l-41.09,26.76a1.64,1.64,0,0,0-.48,2.27l0,0a1.63,1.63,0,0,0,2.27.48L173,141.4a.05.05,0,0,1,.08,0l1.28,2.57a0,0,0,0,1,0,.07L133.8,170.43a1.67,1.67,0,0,0-.48,2.28l0,0a1.64,1.64,0,0,0,2.27.48l40.16-26.15a0,0,0,0,1,.07,0c.43.87.85,1.73,1.26,2.59a.07.07,0,0,1,0,.07l-39.85,25.95a1.63,1.63,0,0,0-.48,2.27v0a1.67,1.67,0,0,0,2.28.48l39.47-25.71s.06,0,.07,0q.63,1.32,1.23,2.61a.06.06,0,0,1,0,.07l-39.14,25.48a1.66,1.66,0,0,0-.48,2.28l0,0a1.64,1.64,0,0,0,2.27.48l38.72-25.22a.06.06,0,0,1,.08,0l1.2,2.62a.06.06,0,0,1,0,.07l-38.37,25a1.65,1.65,0,0,0-.48,2.27l0,0a1.64,1.64,0,0,0,2.27.48l37.92-24.69a.05.05,0,0,1,.08,0c.39.9.79,1.78,1.17,2.64a.06.06,0,0,1,0,.07L147.5,191.46a1.63,1.63,0,0,0-.48,2.27v0a1.65,1.65,0,0,0,2.28.48l37.05-24.12a0,0,0,0,1,.07,0c.4.91.78,1.8,1.15,2.66a.06.06,0,0,1,0,.07l-36.64,23.85a1.66,1.66,0,0,0-.48,2.28v0a1.66,1.66,0,0,0,2.28.48L188.85,176a.05.05,0,0,1,.08,0c.39.93.76,1.83,1.11,2.68a0,0,0,0,1,0,.06L154.34,202a1.65,1.65,0,0,0-.48,2.27l0,0a1.65,1.65,0,0,0,2.27.48L191,182.06V153c-3-2.06-4.53-4.47-4.53-7.18V134.32c-3.67-3.24-5.38-9.34-5.38-12.8,0-2.93,1.57-5.56,4.67-7.85a413.65,413.65,0,0,0-48.47-67.2c-8-9.29-19.31-5.76-19.31-5.76-18.38,4.64-41.9,28.55-47.26,34.2a2.08,2.08,0,0,0,0,2.81A2.21,2.21,0,0,0,73.51,78Z" transform="translate(-1.26 -0.66)"/><path d="M66.3,243.25s-12.12-9.33-18.71-13.73l-1.33.58,9.43,7.21C48.29,230.47,59.77,238.79,66.3,243.25Z" transform="translate(-1.26 -0.66)"/><path d="M157.29,209.5v0a1.64,1.64,0,0,0,2.27.48L191,189.54v-3.95l-33.22,21.64A1.63,1.63,0,0,0,157.29,209.5Z" transform="translate(-1.26 -0.66)"/><path d="M160.3,215.41a1.91,1.91,0,0,0,2.53.62c4.11-2.31,15.88-8,28.16-6.14V193.15l-30.14,19.63a1.91,1.91,0,0,0-.55,2.63Z" transform="translate(-1.26 -0.66)"/><path d="M17.52,347.32a3.56,3.56,0,0,1-3.41-.19c-4.52-.38-8.78-1.35-10.61-3.39a6.92,6.92,0,0,0,1.17,3.59h0c1.72,2.64,6.86,7,22.11,7.3a67,67,0,0,1-1.08-7.52A77.73,77.73,0,0,1,17.52,347.32Zm-1.09,5.07a.61.61,0,0,1-.8-.17.53.53,0,0,1,.2-.76.58.58,0,0,1,.8.17A.53.53,0,0,1,16.43,352.39Zm4.91.83c-1.55,0-2.79-.5-2.77-1.05s1.3-1,2.85-.95,2.8.5,2.78,1S22.9,353.25,21.34,353.22Z" transform="translate(-1.26 -0.66)"/><path d="M19.44,344.89a3.49,3.49,0,0,1-1.07,1.85c4.05.39,7.33.37,7.33.37l-.21-2.49C24.23,344.65,22,344.84,19.44,344.89Z" transform="translate(-1.26 -0.66)"/><path d="M187,367.66a11.09,11.09,0,0,1-1.53.89c-7.17,3.39-16.73-1.76-21.3-11.46a23.25,23.25,0,0,1-2.06-14.18c.85-4.33,3.18-7.86,6.78-9.56,3.42-1.61,7.5-1.34,11.48.76.56.29,1.11.63,1.65,1a12.55,12.55,0,0,1,4.43-3.55v-2.31a26,26,0,0,0-7.81-4.14c-5.38-1.7-7.43-7.88-10.52-12.6-9.87-15.11-15.46-42.85-16.07-54.81-.29-5.66,1.23-8.5,2.73-9.92a14.94,14.94,0,0,1,8.35-2.42A145.73,145.73,0,0,1,191,248.45V241c-9.82-2.18-21.36-4.67-34.22-7.57a47.85,47.85,0,0,1-6.56-2.47C144,220.7,134.29,205.12,121,185.84,101.27,157.2,77.81,126.3,77.58,126a1.17,1.17,0,0,0-1.29-.41l-3.34,1a1.18,1.18,0,0,0-.68,1.69c.41.75,28.34,52,47.19,88.44-5.67-2.65-11.68-5.42-17.84-8.2-35.32-15.92-75.2-33-75.6-33.14a1.17,1.17,0,0,0-1.54.62l-1.35,3.18a1.17,1.17,0,0,0,.41,1.43c.34.23,33.66,23.25,63.54,41.07,20.78,12.4,37.37,21.28,48,26.72.53,1.26.91,2.26,1.12,3,3,10,6.37,27.49,9.24,36.06,0,0,0,0,0,.05l.37,1.1c.82,2.52,3.45,11.12,2.62,15.53-.49,2.63.94,4.14,2.58,5.64l-.61.18c-.56-.58-.9-.91-.9-.91-8-8.1-17.61-16.51-25.49-23.11-3.47-2.91-7.1-5.88-10.79-8.84C96.46,263.63,54,230.71,48.06,227.18l-.25-.15-.28.06C40.7,228.5,34.71,238,33,244.26l-.1.34.22.29c.63.86,3,3,7.13,6.46h0C56.79,265.2,93.73,293.76,98,296.2l.06,0,.07,0c4.63,1.56,12.89-1.76,14.94-2.64L135,314.19l-3.27.85C88.51,326,66.89,327.1,22.11,328.58c-7.73.26-13.47,2.21-17.06,5.81a12.71,12.71,0,0,0-3.79,9.15c0,.11,0,.21,0,.32a8.83,8.83,0,0,0,1.49,4.6h0c2.47,3.79,9,8.32,25.85,8.28h.95l1,0c22.74-.49,49.6-2.49,91.72-13.67a164.3,164.3,0,0,0,23.23-7.9v0l.77-.35c1.66-.74,3.23-1.53,4.76-2.27a68.2,68.2,0,0,0,7-4.13,26.7,26.7,0,0,1-1.76,7.39c-2.78,7.1-2.17,16.16,1.65,24.25,4,8.48,10.81,14.93,18.15,16.85a15.44,15.44,0,0,0,7.49.27,13.92,13.92,0,0,0,3.48-1.09Zm-34.86-56.85.32.3-.74.21-.29-.32Zm-.62,2.52,2.41-.64.28.34q-3.45,1-6.92,1.9c-4.85,1.32-9.71,2.63-14.59,3.85-5.13,1.29-10.27,2.56-15.44,3.67s-10.38,2.21-15.61,3.14c-2.62.47-5.24.92-7.87,1.33s-5.25.78-7.88,1.15c-5.28.72-10.6,1.3-15.92,1.74q-4,.33-8,.62t-7.89.49c-5.31.31-10.62.51-15.93.7q-3.87.15-7.74.27c-2.58.09-5.17.14-7.76.26a56.52,56.52,0,0,0-7.35.77,28.39,28.39,0,0,0-6.22,1.78,22.08,22.08,0,0,0-2.17,1.1,21.6,21.6,0,0,1,2.73-1.45,23.16,23.16,0,0,1,3.55-1.2A42.17,42.17,0,0,1,20,332c2.54-.24,5.09-.3,7.64-.39l7.85-.29q7.84-.29,15.68-.67c5.29-.26,10.59-.55,15.87-1,2.64-.22,5.28-.44,7.91-.7s5.32-.57,8-.89,5.24-.67,7.86-1.05,5.24-.8,7.85-1.26,5.25-.93,7.86-1.45,5.17-1,7.75-1.58q7.76-1.68,15.44-3.58,7.35-1.8,14.65-3.81C146.73,314.65,149.13,314,151.53,313.33Zm-40.28-20.59c-2.94,1.15-9.11,3.25-12.6,2.13-4.4-2.6-41.48-31.29-57.43-44.66a82,82,0,0,1-6.66-5.93c1.66-5.69,7.06-14.22,13-15.67,6.55,4.11,48.12,36.3,64.76,49.64,3.68,2.95,7.3,5.92,10.76,8.82,8.23,6.89,18.32,15.76,26.51,24.15l-.67.45c-1.83-1.88-4-4-6-6,0,0,2.68,4.29.3,4.6s-11.05-7-11.05-7,5.86,5.52,11.5,11l-.61.19c-11.94-11.5-27.19-24.86-27.19-24.86Zm20.29,16.74q-3.28-3-6.53-6.11l-6.08-5.75-4.65-4.46-.3-.29,2.07,1.86,5.61,5,6.84,6.12,7.42,6.61,3.53,3.11c-.62.18-1,.31-1,.3l-.19-.18C136,313.64,133.78,311.56,131.54,309.48Zm-119.34,22a31.41,31.41,0,0,1,7.3-1.59c2.58-.28,5.18-.3,7.77-.39l7.13-.25c5-.19,10-.39,15-.64,5.21-.27,10.42-.57,15.62-1s10.57-.91,15.83-1.55,10.68-1.42,16-2.33,10.53-1.92,15.76-3,10.25-2.29,15.35-3.55c2.69-.66,5.36-1.35,8-2l.34.32c-1.72.45-3.43.91-5.15,1.34q-7.59,1.92-15.23,3.61-7.83,1.74-15.72,3.17t-16,2.5q-8,1-15.92,1.73c-5.17.44-10.36.79-15.54,1.07s-10.24.49-15.35.68c-4.88.18-9.76.33-14.64.49S13,331,8.7,333.22c-.8.42-1.56.88-2.32,1.36A24.17,24.17,0,0,1,12.2,331.51ZM4,347.71a7.64,7.64,0,0,1-1.28-3.93,6.47,6.47,0,0,1,2-4.9c3.18-3.18,10-5,19.67-5.36l2.15-.07a68.88,68.88,0,0,0,1.11,21.89C11.35,355.2,5.85,350.52,4,347.71Zm119-19.42c-5.16,1.34-10.32,2.6-15.54,3.69s-10.75,2.1-16.17,2.92c-2.66.4-5.33.79-8,1.14s-5.32.63-8,.9c-4.75.5-9.49.86-14.25,1.18l-.37,0c4.24-.43,8.49-.84,12.72-1.35,5.3-.65,10.6-1.31,15.87-2.14s10.83-1.79,16.22-2.84q7.83-1.51,15.6-3.42c4.53-1.1,15.9-4.15,20.4-5.36l.36-.09C137.94,324.16,127.08,327.24,123.06,328.29ZM150,319.71c-35.47,9.56-81.24,16.86-114.26,18.21-4.37.18-8.09.54-8.32,6.11a54.52,54.52,0,0,1,.36-10.56c38.65-1.31,63.55-2.56,106.47-13.44.79-.2,14.84-4,20.93-5.61a10.92,10.92,0,0,1,.54,1c.17.42.35.83.51,1.23a24,24,0,0,1,1.64,6C156.35,320.91,153.18,318.86,150,319.71Z" transform="translate(-1.26 -0.66)"/><path d="M13,346a3.46,3.46,0,0,1-.49-1.39A21.37,21.37,0,0,1,4.16,342C5.68,344,9.19,345.23,13,346Z" transform="translate(-1.26 -0.66)"/><path d="M15.15,342.77a1.59,1.59,0,0,0,.25,2.83,1.27,1.27,0,0,1-.21-.25A1.32,1.32,0,1,1,17.43,344a1,1,0,0,1,.14.3,1.57,1.57,0,0,0-.23-1A1.59,1.59,0,0,0,15.15,342.77Z" transform="translate(-1.26 -0.66)"/><path d="M25.2,335.86l.16-1.36s-11.38.25-16.28,2.58C15.58,335.55,25.2,335.86,25.2,335.86Z" transform="translate(-1.26 -0.66)"/><path d="M14.41,341.56a3,3,0,1,0,4.13,1A3,3,0,0,0,14.41,341.56Zm2.7,4.4a2.16,2.16,0,1,1,.71-3A2.16,2.16,0,0,1,17.11,346Z" transform="translate(-1.26 -0.66)"/><path d="M122.22,294.22S116,288,118.3,287.46s12.48,7.7,12.48,7.7-6.77-5.94-11.12-9.59-10.12-8.27-10.12-8.27c1.44,1.52,2.14,2.36,1.76,2.32-1.11-.1-4.18-2.78-9.25-6.27l10.35,8.29a4.14,4.14,0,0,1,.71,5.65l-3.38,4.17c2.75-2.51,5.89-2.94,7.26-1.84S122.22,294.22,122.22,294.22Z" transform="translate(-1.26 -0.66)"/><path d="M110.84,281.2c-15.24-12.77-58.79-46.1-65.35-50.77a22.25,22.25,0,0,0-6.92,7.14l.12-.13a33.71,33.71,0,0,0-2.79,5.65c.26-.53.53-1.06.81-1.58a28.09,28.09,0,0,1,4.17-5.8l.48-.23c-.07.1-.15.19-.22.28a30.64,30.64,0,0,0-3.85,6.65c.28-.51.56-1,.86-1.5a28.12,28.12,0,0,1,4.65-5.83l.37,0c-.19.21-.37.41-.55.63a28.88,28.88,0,0,0-3.94,6.23,28.15,28.15,0,0,1,5.61-6.83l.29,0a29.27,29.27,0,0,0-4.65,6.64,28.7,28.7,0,0,1,5.61-6.43l.26.08a28.72,28.72,0,0,0-4.72,6.43,28.74,28.74,0,0,1,5.57-6.13l.23.1a29.37,29.37,0,0,0-4.61,6.07,28.67,28.67,0,0,1,5.41-5.7l.2.1a29.55,29.55,0,0,0-4.6,6,29,29,0,0,1,5.36-5.54l.2.12a29.58,29.58,0,0,0-4.46,5.67,29.42,29.42,0,0,1,5.16-5.24l.2.13a28.82,28.82,0,0,0-4.3,5.41,28.62,28.62,0,0,1,5-5l.2.14a29.14,29.14,0,0,0-4.21,5.24,28.84,28.84,0,0,1,4.89-4.8l.21.14a29.84,29.84,0,0,0-4.1,5.07A29.43,29.43,0,0,1,52.21,239l.19.13a31.08,31.08,0,0,0-4,5,29.64,29.64,0,0,1,4.71-4.52l.19.13a30.93,30.93,0,0,0-4,4.89A30.87,30.87,0,0,1,54,240.16l.19.13a31.88,31.88,0,0,0-3.88,4.79,31.57,31.57,0,0,1,4.56-4.32l.19.13a32.1,32.1,0,0,0-3.79,4.67,32.32,32.32,0,0,1,4.47-4.2l.18.13a33.12,33.12,0,0,0-3.77,4.66A32.55,32.55,0,0,1,56.56,242l.17.12A34.83,34.83,0,0,0,53,246.73a34.08,34.08,0,0,1,4.43-4.15l.17.12a35,35,0,0,0-3.71,4.61,35,35,0,0,1,4.39-4.13l.17.12a35.5,35.5,0,0,0-3.68,4.6,35.21,35.21,0,0,1,4.36-4.1.91.91,0,0,1,.16.11,37.47,37.47,0,0,0-3.6,4.53,36.35,36.35,0,0,1,4.29-4l.15.11a37.63,37.63,0,0,0-3.64,4.61A37.12,37.12,0,0,1,60.8,245l-.08-.08.24.18a39.57,39.57,0,0,0-3.68,4.67,39.11,39.11,0,0,1,4.32-4.12l-.27-.28.48.35a39.73,39.73,0,0,0-3.65,4.63,40.26,40.26,0,0,1,4.33-4.13l.15.12a41.6,41.6,0,0,0-3.68,4.7,42.08,42.08,0,0,1,4.36-4.19l0,0,.17.13a41.8,41.8,0,0,0-3.62,4.66,41.51,41.51,0,0,1,4.27-4.12l-.18-.19.36.28a43.25,43.25,0,0,0-3.62,4.68A42.31,42.31,0,0,1,65,248.13l.16.12A44.51,44.51,0,0,0,61.52,253a42.43,42.43,0,0,1,4.28-4.2l.16.13a45.89,45.89,0,0,0-3.61,4.71,44.66,44.66,0,0,1,4.27-4.21l.16.13a46.27,46.27,0,0,0-3.56,4.69A46.36,46.36,0,0,1,67.44,250l.16.13A51.44,51.44,0,0,0,64,255a51.32,51.32,0,0,1,4.3-4.3l.16.12a52.43,52.43,0,0,0-3.59,4.79,53.51,53.51,0,0,1,4.24-4.28l.16.12a57.53,57.53,0,0,0-3.57,4.81,57.08,57.08,0,0,1,4.23-4.29l.15.12c-1.27,1.58-2.47,3.2-3.6,4.88q2-2.28,4.26-4.36l.15.12c-1.22,1.55-2.39,3.14-3.49,4.78,1.33-1.48,2.71-2.89,4.15-4.26l.15.12c-1.23,1.58-2.41,3.19-3.52,4.85q2-2.24,4.18-4.33l.15.12c-1.22,1.58-2.38,3.2-3.5,4.86,1.34-1.49,2.72-2.93,4.16-4.33l.15.12c-1.2,1.57-2.34,3.18-3.44,4.82,1.32-1.48,2.69-2.91,4.09-4.3l.15.12c-1.18,1.58-2.31,3.19-3.41,4.83,1.32-1.47,2.67-2.9,4.07-4.3l.15.12c-1.2,1.61-2.35,3.26-3.47,4.93q2-2.25,4.12-4.4l.15.12-.39.55-2.93,4.23.5-.54,3.47-3.71.15.12-.4.57-3,4.31.51-.55,3.51-3.8.15.12c-.13.18-.26.37-.38.56L74,262.7l.5-.54,3.46-3.77.15.12-.39.57c-1,1.46-2,2.91-3,4.37.16-.19.33-.37.5-.56l3.5-3.84.14.12-.37.55-2.91,4.34.49-.55,3.44-3.81.15.13-.36.54-2.89,4.33.49-.54c1.13-1.27,2.27-2.53,3.41-3.8l.15.12-.37.56-2.89,4.37c.16-.19.33-.37.5-.56l3.4-3.83.15.12c-.12.18-.24.36-.35.54l-2.87,4.38.49-.56,3.37-3.82.15.12c-.11.18-.23.36-.35.54-1,1.48-1.92,3-2.87,4.43l.49-.57,3.37-3.86.16.13c-.12.17-.23.35-.35.53l-2.84,4.42c.16-.2.33-.39.49-.58L83.49,263l.16.13c-1,1.69-2.09,3.36-3.2,5,1.32-1.45,2.59-2.94,3.83-4.45l.16.13c-1,1.68-2,3.34-3.15,5,1.3-1.44,2.56-2.93,3.78-4.44l.16.14c-1,1.7-2,3.37-3.16,5,1.32-1.44,2.58-2.94,3.79-4.47l.16.14c-1,1.7-2,3.36-3.11,5,1.3-1.43,2.54-2.92,3.74-4.45l.16.14c-1,1.71-2,3.39-3.12,5,1.32-1.44,2.56-2.94,3.75-4.49l.16.14q-1.41,2.55-3,4.95c1.29-1.41,2.51-2.89,3.66-4.42l.17.15a52.63,52.63,0,0,1-3.07,5A51.16,51.16,0,0,0,89,267.69l.17.14a45.26,45.26,0,0,1-3,4.95,48.07,48.07,0,0,0,3.62-4.42l.17.15a46.45,46.45,0,0,1-3,5A44.62,44.62,0,0,0,90.58,269l.17.14a40.84,40.84,0,0,1-3,5.05,42.81,42.81,0,0,0,3.65-4.51l.16.14a41.83,41.83,0,0,1-3,5.07,44,44,0,0,0,3.64-4.53l.16.14a38.06,38.06,0,0,1-3,5A40.77,40.77,0,0,0,93,271.09l.15.13a36.21,36.21,0,0,1-3,5.06,38.06,38.06,0,0,0,3.6-4.51l.16.14a34.78,34.78,0,0,1-3,5.1,36,36,0,0,0,3.63-4.55l.16.14a30.41,30.41,0,0,1-3,5.11,31.41,31.41,0,0,0,3.63-4.57l.16.15a29.33,29.33,0,0,1-3.07,5.21,30.19,30.19,0,0,0,3.69-4.67l.16.14a27.87,27.87,0,0,1-3.09,5.27,29.59,29.59,0,0,0,3.73-4.71l.15.13A26.82,26.82,0,0,1,93.88,280a27.09,27.09,0,0,0,3.8-4.81l.16.15a26.07,26.07,0,0,1-3.24,5.44,26.51,26.51,0,0,0,3.87-4.9l.16.15a25.22,25.22,0,0,1-3.27,5.49,25.79,25.79,0,0,0,3.9-4.94l.16.14A24.19,24.19,0,0,1,96,282.4a24.84,24.84,0,0,0,4-5.1l.16.13a23.52,23.52,0,0,1-3.53,5.79,24.37,24.37,0,0,0,4.16-5.23,1.07,1.07,0,0,1,.16.14,22.73,22.73,0,0,1-3.68,5.95,23.83,23.83,0,0,0,4.3-5.41l.17.15a21.93,21.93,0,0,1-3.83,6.1,23.16,23.16,0,0,0,4.46-5.55l.16.14a21.92,21.92,0,0,1-4,6.31,22.72,22.72,0,0,0,4.63-5.71l.16.16A22,22,0,0,1,99,286.82a22.83,22.83,0,0,0,4.89-5.89l.15.18a21.94,21.94,0,0,1-4.56,6.7l1-.91a20.62,20.62,0,0,0,4.1-5.07l.16.22c-.18.43-.36.85-.57,1.26a24.25,24.25,0,0,1-4.26,5.52l1-.89a21.15,21.15,0,0,0,4.3-5.09c0,.09.09.19.14.28a17.15,17.15,0,0,1-2,3.39,33.07,33.07,0,0,1-3,3.34c.45-.36.89-.73,1.31-1.1a21.05,21.05,0,0,0,4.14-4.75c0,.12.09.24.13.36a17.6,17.6,0,0,1-2.19,3.38,34.24,34.24,0,0,1-3.07,3.19c.45-.35.9-.7,1.34-1.07a21.9,21.9,0,0,0,4.19-4.47c0,.15.06.31.08.46a19.4,19.4,0,0,1-2.18,3.07,32.09,32.09,0,0,1-3.18,3.1,33.11,33.11,0,0,0,3.52-2.84,20.52,20.52,0,0,0,1.88-2.08c0,.17,0,.33,0,.5a21.85,21.85,0,0,1-2,2.58,29.82,29.82,0,0,1-2.9,2.72c-1.4,0-2.75-.89-4.5-2.15-2.87-2.05-5.5-4-7.81-5.76,1.29,1.34,9.73,8.47,12,9.28l0,0h0a1,1,0,0,0,.38.07,30,30,0,0,0,6.32-1.3l4.36-5.85C113.68,285.12,113.5,283.43,110.84,281.2Zm-6.54,10.35-.88.79a4,4,0,0,1-2,.57l.92-.65a25.14,25.14,0,0,0,3.5-3.08A7.34,7.34,0,0,1,104.3,291.55Z" transform="translate(-1.26 -0.66)"/><path class="cls-1" d="M331.08,311.3l26.85,7.46,28.1,6L409.4,327l29.34,1.74,18.27.54s10.85,1.54,13.33,5.77,4.75,7.16,2.71,11.84a20,20,0,0,1-13.58,8.54L440,355.8l-75.34-12.68-31.08-10.94-10.94-4.47-8.6-3.14-2.85-2.46-.38-2,.49-1.62,2.45-4.36,2.35-3.53,2.84-1.22Z" transform="translate(-1.26 -0.66)"/><polygon class="cls-2" points="441.44 243.94 437.26 234.81 430.68 229.28 428.31 227.44 426.3 226.51 342.44 292.49 327.16 306.97 323.87 310.53 331.88 314.03 336.7 315.43 339.81 311.98 360.63 293.22 362.72 293.02 370.1 295.12 376.39 295.53 436.05 248.06 441.44 243.94"/><path d="M382.74,265.2c-3.65,2.71-7.34,5.37-11.14,7.87l.07-.06c1.61-1.37,3.27-2.68,4.92-4,2.46-2,4.94-3.9,7.43-5.82s5.1-3.92,7.66-5.88l6.11-4.68,2.51-1.91q-2.66,2.53-5.46,4.9C390.93,259,386.86,262.13,382.74,265.2Z" transform="translate(-1.26 -0.66)"/><path d="M426.05,255.2c-.49.11-3.56,2.72-7.06,4.9,5.23-4.19,16.43-13.19,19.91-16.13-1.08,1.49-6.14,5.33-6.07,6.08,0,.39,3.38-2.59,4.6-3-.61.53-3.53,3-4.24,3.55-1.55,1.3-7.4,6-9.33,7.55C425.09,256.36,427.41,254.89,426.05,255.2Z" transform="translate(-1.26 -0.66)"/><path d="M395.48,279.28c-.36-.16-1,.14-2.15.74,4.11-3.15,9.66-7.53,13.26-10.33-1.33,1.63-6.32,5.3-5.41,5.34.52,0,11.75-9,15.06-10.88-7.45,6.24-28.27,22.13-34.06,26.52C384.39,288.45,396,279.53,395.48,279.28Z" transform="translate(-1.26 -0.66)"/><path d="M402.34,78,368.72,56.11h-.05c-1.15.64-2.29,1.35-3.43,2.09a.06.06,0,0,0,0,.09l35,22.78a1.67,1.67,0,0,1,.48,2.28l0,0a1.64,1.64,0,0,1-2.27.48l-36.2-23.57h-.05c-.82.59-1.63,1.2-2.44,1.83a0,0,0,0,0,0,.08l37.07,24.14a1.64,1.64,0,0,1,.48,2.27v0a1.66,1.66,0,0,1-2.28.48L357,64.37a.06.06,0,0,0-.06,0c-.75.63-1.5,1.28-2.24,1.95,0,0,0,.06,0,.08l38.67,25.19a1.64,1.64,0,0,1,.48,2.27l0,0a1.63,1.63,0,0,1-2.27.48l-39.4-25.65a0,0,0,0,0-.06,0c-.71.67-1.4,1.35-2.1,2a.06.06,0,0,0,0,.09l39.94,26a1.67,1.67,0,0,1,.48,2.28l0,0a1.64,1.64,0,0,1-2.27.48L347.65,73.24s0,0-.06,0c-.67.7-1.32,1.4-2,2.12a.05.05,0,0,0,0,.08l40.92,26.65a1.64,1.64,0,0,1,.48,2.27v0a1.67,1.67,0,0,1-2.28.48L343.37,77.94a.06.06,0,0,0-.07,0c-.62.72-1.25,1.45-1.87,2.19a0,0,0,0,0,0,.07l41.68,27.15a1.64,1.64,0,0,1,.48,2.27l0,0a1.63,1.63,0,0,1-2.27.48l-42-27.35a0,0,0,0,0-.07,0L337.44,85a.07.07,0,0,0,0,.08l42.24,27.5a1.67,1.67,0,0,1,.48,2.28l0,0a1.64,1.64,0,0,1-2.27.48L335.41,87.73a0,0,0,0,0-.07,0L333.63,90a0,0,0,0,0,0,.07l42.63,27.77a1.64,1.64,0,0,1,.48,2.27v0a1.65,1.65,0,0,1-2.27.48L331.68,92.78s-.06,0-.07,0c-.56.77-1.11,1.54-1.66,2.32a.06.06,0,0,0,0,.08l42.88,27.92a1.66,1.66,0,0,1,.48,2.28v0a1.65,1.65,0,0,1-2.28.48l-43-28a.06.06,0,0,0-.07,0c-.54.78-1.07,1.57-1.6,2.37a.05.05,0,0,0,0,.07l43,28a1.66,1.66,0,0,1,.48,2.28l0,0a1.64,1.64,0,0,1-2.27.48l-43-28a0,0,0,0,0-.07,0l-1.55,2.4a.06.06,0,0,0,0,.07l43,28a1.65,1.65,0,0,1,.49,2.27l0,0a1.64,1.64,0,0,1-2.27.48l-43-28a.06.06,0,0,0-.08,0l-1.5,2.43s0,.06,0,.07l42.9,27.94a1.66,1.66,0,0,1,.48,2.28v0a1.66,1.66,0,0,1-2.28.48L318,113.79a.08.08,0,0,0-.08,0c-.49.82-1,1.64-1.45,2.46a0,0,0,0,0,0,.07l42.71,27.81a1.64,1.64,0,0,1,.48,2.27l0,0a1.65,1.65,0,0,1-2.27.48l-42.56-27.72s-.06,0-.07,0l-1.42,2.48s0,.06,0,.07l42.42,27.63a1.65,1.65,0,0,1,.48,2.27l0,0a1.64,1.64,0,0,1-2.27.48l-42.23-27.5a.06.06,0,0,0-.07,0c-.47.84-.93,1.68-1.38,2.51a0,0,0,0,0,0,.07l42.05,27.38a1.65,1.65,0,0,1,.48,2.28v0a1.66,1.66,0,0,1-2.28.48l-41.81-27.23a.05.05,0,0,0-.08,0l-1.34,2.53a.05.05,0,0,0,0,.07l41.6,27.09a1.64,1.64,0,0,1,.48,2.27l0,0a1.65,1.65,0,0,1-2.27.48l-41.33-26.92s-.06,0-.07,0l-1.32,2.55a.06.06,0,0,0,0,.07l41.09,26.76a1.65,1.65,0,0,1,.48,2.27l0,0a1.63,1.63,0,0,1-2.27.48L302.88,141.4a0,0,0,0,0-.07,0c-.44.86-.86,1.72-1.29,2.57a.07.07,0,0,0,0,.07L342,170.43a1.65,1.65,0,0,1,.48,2.28v0a1.64,1.64,0,0,1-2.27.48l-40.16-26.15a.05.05,0,0,0-.08,0c-.42.87-.84,1.73-1.25,2.59a.07.07,0,0,0,0,.07l39.85,25.95a1.64,1.64,0,0,1,.48,2.27v0a1.67,1.67,0,0,1-2.28.48l-39.47-25.71a0,0,0,0,0-.07,0q-.63,1.32-1.23,2.61a.06.06,0,0,0,0,.07l39.14,25.48a1.67,1.67,0,0,1,.48,2.28l0,0a1.64,1.64,0,0,1-2.27.48L294.67,158.5a.06.06,0,0,0-.08,0l-1.2,2.62a.06.06,0,0,0,0,.07l38.36,25a1.64,1.64,0,0,1,.48,2.27v0A1.64,1.64,0,0,1,330,189l-37.92-24.69a.05.05,0,0,0-.08,0L290.8,167a.06.06,0,0,0,0,.07l37.53,24.44a1.64,1.64,0,0,1,.48,2.27v0a1.65,1.65,0,0,1-2.28.48l-37.05-24.12a0,0,0,0,0-.07,0c-.4.91-.78,1.8-1.15,2.66a.06.06,0,0,0,0,.07l36.64,23.85a1.66,1.66,0,0,1,.48,2.28l0,0a1.64,1.64,0,0,1-2.27.48L287,176a.05.05,0,0,0-.08,0c-.39.93-.76,1.83-1.12,2.68a0,0,0,0,0,0,.06L321.51,202a1.65,1.65,0,0,1,.48,2.27l0,0a1.65,1.65,0,0,1-2.27.48l-34.85-22.69V153c3-2.06,4.54-4.47,4.54-7.18V134.32c3.66-3.24,5.38-9.34,5.38-12.8,0-2.93-1.58-5.56-4.68-7.85a414.36,414.36,0,0,1,48.47-67.2c8-9.29,19.32-5.76,19.32-5.76,18.38,4.64,41.9,28.55,47.26,34.2a2.09,2.09,0,0,1,.05,2.81A2.21,2.21,0,0,1,402.34,78Z" transform="translate(-1.26 -0.66)"/><path d="M409.54,243.25s12.13-9.33,18.71-13.73l1.34.58-9.43,7.21C427.56,230.47,416.08,238.79,409.54,243.25Z" transform="translate(-1.26 -0.66)"/><path d="M318.56,209.5v0a1.65,1.65,0,0,1-2.28.48l-31.42-20.46v-3.95l33.23,21.64A1.63,1.63,0,0,1,318.56,209.5Z" transform="translate(-1.26 -0.66)"/><path d="M315.55,215.41A1.91,1.91,0,0,1,313,216c-4.11-2.31-15.89-8-28.17-6.14V193.15L315,212.78a1.9,1.9,0,0,1,.56,2.63Z" transform="translate(-1.26 -0.66)"/><path d="M450.14,347.11a62.71,62.71,0,0,1-1.08,7.52c15.26-.3,20.4-4.66,22.12-7.3h0a6.92,6.92,0,0,0,1.17-3.59c-1.83,2-6.1,3-10.62,3.39a3.54,3.54,0,0,1-3.4.19A78,78,0,0,1,450.14,347.11Zm9.07,4.52a.6.6,0,0,1,.81-.17.53.53,0,0,1,.2.76.62.62,0,0,1-.81.17A.53.53,0,0,1,459.21,351.63Zm-7.56.64c0-.55,1.22-1,2.77-1s2.83.4,2.86.95-1.22,1-2.78,1.05S451.67,352.82,451.65,352.27Z" transform="translate(-1.26 -0.66)"/><path d="M456.4,344.89a3.58,3.58,0,0,0,1.08,1.85c-4.05.39-7.34.37-7.34.37l.22-2.49C451.62,344.65,453.8,344.84,456.4,344.89Z" transform="translate(-1.26 -0.66)"/><path d="M288.84,376.08a13.92,13.92,0,0,0,3.48,1.09,15.43,15.43,0,0,0,7.49-.27C307.15,375,314,368.53,318,360.05c3.81-8.09,4.43-17.15,1.65-24.25a26.7,26.7,0,0,1-1.76-7.39,67.14,67.14,0,0,0,7,4.13c1.52.74,3.1,1.53,4.76,2.27l.77.35v0a165.19,165.19,0,0,0,23.23,7.9c42.13,11.18,69,13.18,91.73,13.67l1,0h.94c16.9,0,23.39-4.49,25.86-8.28h0a9,9,0,0,0,1.49-4.6c0-.11,0-.21,0-.32a12.66,12.66,0,0,0-3.79-9.15c-3.59-3.6-9.33-5.55-17.06-5.81C409,327.1,387.34,326,344.17,315c-1.16-.29-2.23-.57-3.27-.85l21.9-20.57c2.06.88,10.32,4.2,14.94,2.64l.07,0,.07,0c4.24-2.44,41.18-31,57.7-44.85h0c4.16-3.49,6.49-5.6,7.13-6.46l.21-.29-.09-.34c-1.69-6.3-7.68-15.76-14.51-17.17L428,227l-.25.15c-5.92,3.53-48.4,36.45-65.18,49.91-3.69,3-7.32,5.93-10.79,8.84-7.88,6.6-17.47,15-25.49,23.11,0,0-.35.33-.91.91l-.6-.18c1.64-1.5,3.07-3,2.58-5.64-.83-4.41,1.8-13,2.62-15.53l.37-1.1s0,0,0-.05c2.87-8.57,6.27-26,9.24-36.06.21-.7.59-1.7,1.12-3,10.63-5.44,27.22-14.32,48-26.72,29.88-17.82,63.2-40.84,63.53-41.07a1.18,1.18,0,0,0,.42-1.43L451.37,176a1.13,1.13,0,0,0-.64-.63,1.15,1.15,0,0,0-.91,0c-.39.17-40.28,17.22-75.59,33.14-6.16,2.78-12.17,5.55-17.85,8.2,18.86-36.44,46.79-87.69,47.2-88.44a1.19,1.19,0,0,0,.06-1,1.22,1.22,0,0,0-.74-.68l-3.34-1a1.16,1.16,0,0,0-1.29.41c-.24.31-23.69,31.21-43.43,59.85-13.28,19.28-23,34.86-29.2,45.14a47.35,47.35,0,0,1-6.57,2.47c-12.85,2.9-24.4,5.39-34.22,7.57v7.43a145.82,145.82,0,0,1,27.86-3.11,14.91,14.91,0,0,1,8.34,2.42c1.51,1.42,3,4.26,2.74,9.92-.61,12-6.2,39.7-16.07,54.81-3.09,4.72-5.15,10.9-10.53,12.6a26,26,0,0,0-7.8,4.14v2.31a12.73,12.73,0,0,1,4.43,3.55,18.36,18.36,0,0,1,1.65-1c4-2.1,8.06-2.37,11.48-.76,3.6,1.7,5.93,5.23,6.78,9.56a23.33,23.33,0,0,1-2.06,14.18c-4.57,9.7-14.13,14.85-21.31,11.46a11,11,0,0,1-1.52-.89ZM324.41,311l-.3.32-.74-.21.33-.3Zm7.11,4.31q7.29,2,14.65,3.81,7.68,1.89,15.44,3.58c2.57.55,5.16,1.07,7.74,1.58s5.25,1,7.87,1.45,5.23.88,7.85,1.26,5.23.74,7.85,1.05,5.31.62,8,.89,5.27.48,7.91.7c5.28.45,10.57.74,15.86,1s10.46.48,15.69.67l7.85.29c2.55.09,5.1.15,7.64.39a42.17,42.17,0,0,1,6.78,1.17,23.53,23.53,0,0,1,3.55,1.2,20.82,20.82,0,0,1,2.72,1.45,20.86,20.86,0,0,0-2.16-1.1,28.39,28.39,0,0,0-6.22-1.78,56.71,56.71,0,0,0-7.35-.77c-2.59-.12-5.18-.17-7.77-.26s-5.16-.17-7.74-.27c-5.31-.19-10.62-.39-15.92-.7-2.63-.15-5.27-.31-7.9-.49s-5.32-.4-8-.62c-5.31-.44-10.63-1-15.92-1.74-2.63-.37-5.25-.73-7.88-1.15s-5.25-.86-7.87-1.33c-5.22-.93-10.41-2-15.6-3.14s-10.31-2.38-15.44-3.67c-4.88-1.22-9.74-2.53-14.6-3.85-2.3-.62-4.61-1.25-6.91-1.9.09-.12.19-.23.28-.34l2.4.64C326.72,314,329.12,314.65,331.52,315.31ZM360,289.61S344.74,303,332.8,314.47l-.61-.19c5.64-5.49,11.49-11,11.49-11s-8.67,7.27-11,7,.3-4.6.3-4.6c-2.05,2-4.17,4.15-6,6l-.67-.45c8.18-8.39,18.28-17.26,26.51-24.15,3.46-2.9,7.08-5.87,10.76-8.82,16.63-13.34,58.21-45.53,64.76-49.64,5.92,1.45,11.33,10,13,15.67a83.23,83.23,0,0,1-6.67,5.93c-15.94,13.37-53,42.06-57.42,44.66-3.49,1.12-9.66-1-12.6-2.13ZM337.56,315.7l-.19.18-1-.3,3.52-3.11c2.49-2.2,4.95-4.41,7.42-6.61l6.85-6.12,5.6-5,2.08-1.86-.31.29c-1.55,1.49-3.09,3-4.65,4.46-2,1.92-4,3.84-6.07,5.75l-6.53,6.11C342.07,311.56,339.83,313.64,337.56,315.7Zm131.91,18.88c-.76-.48-1.52-.94-2.32-1.36-4.32-2.27-9.21-3-14.06-3.15s-9.76-.31-14.64-.49q-7.68-.29-15.35-.68c-5.18-.28-10.37-.63-15.54-1.07s-10.63-1-15.92-1.73-10.69-1.54-16-2.5-10.51-2-15.73-3.17-10.16-2.33-15.22-3.61c-1.72-.43-3.43-.89-5.15-1.34l.34-.32c2.67.7,5.35,1.39,8,2q7.65,1.89,15.36,3.55t15.75,3q8,1.36,16,2.33c5.27.64,10.55,1.14,15.84,1.55s10.41.7,15.61,1c5,.25,10,.45,15,.64l7.13.25c2.58.09,5.19.11,7.76.39a31.5,31.5,0,0,1,7.31,1.59A24.36,24.36,0,0,1,469.47,334.58Zm-21.31,20.76a68.88,68.88,0,0,0,1.11-21.89l2.15.07c9.69.32,16.49,2.18,19.67,5.36a6.46,6.46,0,0,1,2,4.9,7.53,7.53,0,0,1-1.27,3.93C470,350.52,464.5,355.2,448.16,355.34Zm-114.23-32.4.36.09c4.49,1.21,15.87,4.26,20.39,5.36q7.76,1.89,15.61,3.42c5.39,1.05,10.79,2,16.22,2.84,5.27.83,10.57,1.49,15.87,2.14,4.23.51,8.47.92,12.72,1.35l-.38,0c-4.75-.32-9.5-.68-14.24-1.18-2.66-.27-5.33-.55-8-.9s-5.34-.74-8-1.14q-8.13-1.23-16.17-2.92c-5.22-1.09-10.39-2.35-15.54-3.69C348.76,327.24,337.91,324.16,333.93,322.94ZM318,322.6a24.41,24.41,0,0,1,1.64-6l.51-1.23q.27-.51.54-1L341.6,320c42.93,10.88,67.83,12.13,106.47,13.44a54.2,54.2,0,0,1,.37,10.56c-.24-5.57-3.95-5.93-8.32-6.11-33-1.35-78.8-8.65-114.27-18.21C322.67,318.86,319.49,320.91,318,322.6Z" transform="translate(-1.26 -0.66)"/><path d="M462.89,346a3.62,3.62,0,0,0,.49-1.39,21.32,21.32,0,0,0,8.3-2.6C470.17,344,466.65,345.23,462.89,346Z" transform="translate(-1.26 -0.66)"/><path d="M460.7,342.77a1.59,1.59,0,0,1-.25,2.83,1.69,1.69,0,0,0,.2-.25,1.32,1.32,0,1,0-2.24-1.38,1.36,1.36,0,0,0-.13.3,1.57,1.57,0,0,1,.23-1A1.59,1.59,0,0,1,460.7,342.77Z" transform="translate(-1.26 -0.66)"/><path d="M450.65,335.86l-.17-1.36s11.39.25,16.29,2.58C460.26,335.55,450.65,335.86,450.65,335.86Z" transform="translate(-1.26 -0.66)"/><path d="M457.3,342.55a3,3,0,1,0,4.14-1A3,3,0,0,0,457.3,342.55Zm.73.44a2.16,2.16,0,1,1,.7,3A2.15,2.15,0,0,1,458,343Z" transform="translate(-1.26 -0.66)"/><path d="M353.62,294.22s6.23-6.26,3.92-6.76-12.47,7.7-12.47,7.7,6.77-5.94,11.11-9.59,10.13-8.27,10.13-8.27c-1.45,1.52-2.15,2.36-1.77,2.32,1.11-.1,4.19-2.78,9.26-6.27l-10.35,8.29a4.12,4.12,0,0,0-.71,5.65l3.38,4.17c-2.75-2.51-5.89-2.94-7.27-1.84S353.62,294.22,353.62,294.22Z" transform="translate(-1.26 -0.66)"/><path d="M363.69,287.21l4.36,5.85a30.06,30.06,0,0,0,6.33,1.3,1.06,1.06,0,0,0,.38-.07h0l0,0c2.32-.81,10.75-7.94,12.05-9.28-2.32,1.76-4.95,3.71-7.81,5.76-1.75,1.26-3.11,2.12-4.51,2.15a30.9,30.9,0,0,1-2.89-2.72,21.85,21.85,0,0,1-2-2.58c0-.17,0-.33-.05-.5a20.62,20.62,0,0,0,1.89,2.08,33.11,33.11,0,0,0,3.52,2.84,32.09,32.09,0,0,1-3.18-3.1,18.19,18.19,0,0,1-2.18-3.07c0-.15,0-.31.07-.46a22.23,22.23,0,0,0,4.2,4.47c.44.37.89.72,1.34,1.07a34.24,34.24,0,0,1-3.07-3.19,17.6,17.6,0,0,1-2.19-3.38l.12-.36a21.3,21.3,0,0,0,4.14,4.75l1.31,1.1a34.2,34.2,0,0,1-3-3.34,17.15,17.15,0,0,1-2-3.39l.14-.28a21.11,21.11,0,0,0,4.29,5.09c.34.3.67.6,1,.89a24.25,24.25,0,0,1-4.26-5.52q-.31-.62-.57-1.26l.15-.22a20.89,20.89,0,0,0,4.11,5.07l1,.91a21.91,21.91,0,0,1-4.55-6.7,1.19,1.19,0,0,1,.15-.18,22.79,22.79,0,0,0,4.88,5.89,21.75,21.75,0,0,1-4.3-6.55l.15-.16a22.76,22.76,0,0,0,4.64,5.71,22.17,22.17,0,0,1-4-6.31l.17-.14a23.12,23.12,0,0,0,4.45,5.55,22.4,22.4,0,0,1-3.83-6.1l.17-.15a23.87,23.87,0,0,0,4.31,5.41,22.77,22.77,0,0,1-3.69-5.95L375,278a24.06,24.06,0,0,0,4.16,5.23,23.22,23.22,0,0,1-3.53-5.79l.15-.13a25.23,25.23,0,0,0,4.06,5.1,24.19,24.19,0,0,1-3.42-5.66l.15-.14a26.24,26.24,0,0,0,3.91,4.94,25.22,25.22,0,0,1-3.27-5.49l.16-.15a26.51,26.51,0,0,0,3.87,4.9,26.11,26.11,0,0,1-3.25-5.44l.16-.15A28,28,0,0,0,382,280a27.8,27.8,0,0,1-3.17-5.36l.16-.13a29.59,29.59,0,0,0,3.73,4.71,28.46,28.46,0,0,1-3.1-5.27l.16-.14a30.87,30.87,0,0,0,3.7,4.67,29.33,29.33,0,0,1-3.07-5.21l.16-.15a30.74,30.74,0,0,0,3.63,4.57,29.74,29.74,0,0,1-3-5.11l.16-.14A36,36,0,0,0,385,277a34.84,34.84,0,0,1-3-5.1,1.07,1.07,0,0,0,.16-.14,39.19,39.19,0,0,0,3.61,4.51,37.28,37.28,0,0,1-3-5.06l.16-.13a40.77,40.77,0,0,0,3.61,4.49,39.25,39.25,0,0,1-3-5,1.07,1.07,0,0,0,.16-.14,44.09,44.09,0,0,0,3.65,4.53,41.83,41.83,0,0,1-3-5.07l.16-.14a41.58,41.58,0,0,0,3.65,4.51,42.18,42.18,0,0,1-3-5.05l.17-.14a46.16,46.16,0,0,0,3.65,4.49,43.45,43.45,0,0,1-3-5l.17-.15a48.07,48.07,0,0,0,3.62,4.42,45.34,45.34,0,0,1-3-4.95l.17-.14a51.28,51.28,0,0,0,3.7,4.49,52.72,52.72,0,0,1-3.08-5l.17-.15c1.16,1.53,2.37,3,3.67,4.42-1.1-1.6-2.11-3.25-3.05-4.95l.17-.14c1.19,1.55,2.43,3.05,3.74,4.49-1.11-1.63-2.14-3.31-3.12-5l.17-.14c1.19,1.53,2.43,3,3.74,4.45q-1.65-2.43-3.12-5L390,265c1.22,1.53,2.48,3,3.79,4.47-1.11-1.63-2.15-3.3-3.16-5l.16-.14c1.23,1.51,2.48,3,3.79,4.44q-1.65-2.44-3.15-5l.15-.13c1.25,1.51,2.52,3,3.83,4.45-1.1-1.63-2.16-3.3-3.19-5l.15-.13,3.33,3.84.5.58L393.33,263l-.34-.53.15-.13,3.38,3.86.49.57-2.88-4.43c-.11-.18-.23-.36-.35-.54l.16-.12c1.12,1.27,2.24,2.55,3.37,3.82l.49.56-2.87-4.38-.35-.54.15-.12,3.4,3.83.5.56L395.74,261l-.37-.56.15-.12,3.41,3.8.48.54-2.88-4.33-.36-.54.15-.13,3.44,3.81c.16.18.32.37.49.55l-2.91-4.34-.38-.55.15-.12,3.5,3.84c.16.19.33.37.5.56-1-1.46-2-2.91-3-4.37l-.39-.57.15-.12,3.46,3.77.49.54-2.92-4.28c-.13-.19-.25-.38-.38-.56l.15-.12,3.51,3.8.51.55-3-4.31-.39-.57.15-.12L403,260.8l.5.54-2.94-4.23-.38-.55.15-.12q2.1,2.15,4.12,4.4c-1.12-1.67-2.28-3.32-3.47-4.93l.15-.12q2.08,2.1,4.07,4.3-1.65-2.46-3.42-4.83l.15-.12q2.11,2.08,4.1,4.3-1.65-2.46-3.44-4.82l.15-.12c1.43,1.4,2.82,2.84,4.15,4.33q-1.67-2.49-3.49-4.86l.15-.12c1.44,1.4,2.84,2.84,4.18,4.33-1.12-1.66-2.29-3.27-3.53-4.85l.15-.12c1.45,1.37,2.83,2.78,4.16,4.26q-1.65-2.46-3.5-4.78l.15-.12q2.24,2.09,4.26,4.36c-1.12-1.68-2.33-3.3-3.6-4.88l.16-.12a57.08,57.08,0,0,1,4.23,4.29c-1.12-1.66-2.3-3.27-3.57-4.81l.15-.12a53.64,53.64,0,0,1,4.25,4.28,52.43,52.43,0,0,0-3.59-4.79l.16-.12a51.2,51.2,0,0,1,4.29,4.3,51.34,51.34,0,0,0-3.63-4.81l.16-.13a46.36,46.36,0,0,1,4.22,4.19,49.42,49.42,0,0,0-3.56-4.69l.16-.13a45.85,45.85,0,0,1,4.27,4.21,47.35,47.35,0,0,0-3.61-4.71l.16-.13a44.64,44.64,0,0,1,4.28,4.2,44.51,44.51,0,0,0-3.61-4.71l.15-.12a41.29,41.29,0,0,1,4.29,4.18,42,42,0,0,0-3.62-4.68l.37-.28-.18.19a41.51,41.51,0,0,1,4.27,4.12,41.8,41.8,0,0,0-3.62-4.66l.17-.13,0,0a41,41,0,0,1,4.35,4.19,42.68,42.68,0,0,0-3.67-4.7l.15-.12a40.16,40.16,0,0,1,4.32,4.13,38.61,38.61,0,0,0-3.64-4.63l.47-.35-.26.28a40,40,0,0,1,4.32,4.12,39.57,39.57,0,0,0-3.68-4.67l.24-.18-.08.08a37.12,37.12,0,0,1,4.32,4.09,37.71,37.71,0,0,0-3.65-4.61l.16-.11a37.14,37.14,0,0,1,4.29,4,36.6,36.6,0,0,0-3.61-4.53l.16-.11a35.3,35.3,0,0,1,4.37,4.1,35.5,35.5,0,0,0-3.68-4.6l.17-.12a35,35,0,0,1,4.39,4.13,34.27,34.27,0,0,0-3.72-4.61l.18-.12a33.37,33.37,0,0,1,4.42,4.15,34,34,0,0,0-3.73-4.64l.16-.12a31.43,31.43,0,0,1,4.45,4.18,32.36,32.36,0,0,0-3.76-4.66l.18-.13a32.24,32.24,0,0,1,4.46,4.2,31.39,31.39,0,0,0-3.78-4.67l.18-.13a30.57,30.57,0,0,1,4.56,4.32,31.27,31.27,0,0,0-3.88-4.79l.2-.13a30.87,30.87,0,0,1,4.64,4.43,31.56,31.56,0,0,0-4-4.89l.2-.13a30.51,30.51,0,0,1,4.71,4.52,30.61,30.61,0,0,0-4-5l.2-.13a29.37,29.37,0,0,1,4.77,4.62,29.31,29.31,0,0,0-4.09-5.07l.21-.14a28.84,28.84,0,0,1,4.89,4.8A28.77,28.77,0,0,0,425.2,238l.21-.14a28.62,28.62,0,0,1,5,5,28.87,28.87,0,0,0-4.31-5.41l.2-.13a29.47,29.47,0,0,1,5.17,5.24A29.24,29.24,0,0,0,427,236.8l.21-.12a29.61,29.61,0,0,1,5.36,5.54,30.29,30.29,0,0,0-4.6-6l.2-.1a28.34,28.34,0,0,1,5.4,5.7,29,29,0,0,0-4.6-6.07l.22-.1a28.79,28.79,0,0,1,5.58,6.13,28.72,28.72,0,0,0-4.72-6.43l.25-.08a28.75,28.75,0,0,1,5.62,6.43,29,29,0,0,0-4.66-6.64l.3,0a28.62,28.62,0,0,1,5.61,6.83,28.88,28.88,0,0,0-3.94-6.23c-.18-.22-.36-.42-.55-.63l.37,0a28.45,28.45,0,0,1,4.65,5.83c.3.49.58,1,.85,1.5a30.19,30.19,0,0,0-3.84-6.65l-.23-.28c.17.07.33.15.48.23a27.77,27.77,0,0,1,4.18,5.8c.28.52.54,1.05.81,1.58a33.71,33.71,0,0,0-2.79-5.65l.12.13a22.25,22.25,0,0,0-6.92-7.14c-6.56,4.67-50.11,38-65.35,50.77C362.35,283.43,362.17,285.12,363.69,287.21Zm6.3,2a26.34,26.34,0,0,0,3.5,3.08l.92.65a4,4,0,0,1-2-.57l-.89-.79A7.68,7.68,0,0,1,370,289.18Z" transform="translate(-1.26 -0.66)"/></g><g id="Layer_1" data-name="Layer 1"><path class="cls-1" d="M287.35,51.45A49.44,49.44,0,1,1,237.92,2a49.43,49.43,0,0,1,49.43,49.44" transform="translate(-1.26 -0.66)"/><path d="M237.92,3.35A48.1,48.1,0,1,0,286,51.45a48.15,48.15,0,0,0-48.09-48.1m0,98.88A50.79,50.79,0,1,1,288.7,51.45a50.84,50.84,0,0,1-50.78,50.78" transform="translate(-1.26 -0.66)"/><path d="M209.6,86.92c6-3.61,17.58-5.27,28.25-5.27,9.93,0,20.59,1.41,26.84,4.47a46.46,46.46,0,1,0-55.09.8" transform="translate(-1.26 -0.66)"/><path class="cls-1" d="M262.22,21.37c7.08,14.8-1.49,33.65-19.15,42.11s-37.73,3.3-44.81-11.5,1.49-33.66,19.15-42.11,37.73-3.3,44.81,11.5" transform="translate(-1.26 -0.66)"/><path class="cls-3" d="M250,17.8c4.37,9.13-2,21.29-14.32,27.17s-25.78,3.24-30.15-5.89,2.05-21.29,14.33-27.17S245.59,8.67,250,17.8" transform="translate(-1.26 -0.66)"/><path class="cls-1" d="M277.27,56.73c3.82,2.13,4,9.14.35,15.67s-9.67,10.09-13.49,8-4-9.13-.35-15.66,9.67-10.09,13.49-8" transform="translate(-1.26 -0.66)"/><path class="cls-1" d="M280.52,46.21a3,3,0,1,1-3-3,3,3,0,0,1,3,3" transform="translate(-1.26 -0.66)"/><path class="cls-4" d="M237.55,136.48c-23.5,0-42.55,4.14-42.55,9.23v177.6c0,5.1,19.05,9.23,42.55,9.23s42.54-4.13,42.54-9.23V145.71c0-5.09-19-9.23-42.54-9.23" transform="translate(-1.26 -0.66)"/><path d="M237.55,137.87c-25.05,0-41,4.65-41,7.84v177.6c0,3.2,16,7.84,41,7.84s41-4.64,41-7.84V145.71c0-3.19-16-7.84-41-7.84m0,196.05c-21.89,0-44.06-3.64-44.06-10.61V145.71c0-7,22.17-10.61,44.06-10.61s44.05,3.65,44.05,10.61v177.6c0,7-22.16,10.61-44.05,10.61" transform="translate(-1.26 -0.66)"/><path class="cls-1" d="M237.92,365.64c-20.72,0-38.6-3-46.91-7.4v20.39c0,15.71,20.82,21.2,46.5,21.2s46.5-5.49,46.5-21.2v-20c-8.62,4.15-26,7-46.09,7" transform="translate(-1.26 -0.66)"/><path d="M192.52,360.51v18.12c0,6.76,4.28,11.88,12.71,15.22,7.69,3,18.55,4.59,32.28,4.59s24.59-1.54,32.28-4.59c8.44-3.34,12.71-8.46,12.71-15.22V360.84c-9.65,3.84-26.36,6.18-44.58,6.18-18.9,0-35.89-2.46-45.4-6.51m45,40.7c-14.14,0-25.4-1.62-33.47-4.82-9.65-3.82-14.53-9.8-14.53-17.76V358.24a1.37,1.37,0,0,1,.75-1.2,1.65,1.65,0,0,1,1.5,0c8.33,4.38,26.45,7.22,46.16,7.22,19.25,0,36.64-2.62,45.39-6.84a1.64,1.64,0,0,1,1.48,0,1.37,1.37,0,0,1,.73,1.19v20c0,8-4.89,13.94-14.53,17.76-8.07,3.2-19.33,4.82-33.48,4.82" transform="translate(-1.26 -0.66)"/><path d="M285.37,145.8c0,6.53-21.25,11.82-47.45,11.82s-47.46-5.29-47.46-11.82S211.71,134,237.92,134s47.45,5.29,47.45,11.82" transform="translate(-1.26 -0.66)"/><path d="M237.92,135.37c-12.55,0-24.32,1.21-33.16,3.41-9.43,2.35-12.79,5.17-12.79,7s3.36,4.68,12.79,7c8.84,2.2,20.61,3.42,33.16,3.42s24.32-1.22,33.16-3.42c9.42-2.34,12.78-5.16,12.78-7s-3.36-4.67-12.78-7c-8.84-2.2-20.62-3.41-33.16-3.41m0,23.63c-23.74,0-49-4.62-49-13.2s25.22-13.2,49-13.2,49,4.63,49,13.2-25.23,13.2-49,13.2" transform="translate(-1.26 -0.66)"/><path class="cls-1" d="M237.92,114.63c-26.21,0-47.46,5.29-47.46,11.82V145.8h0c0-6.53,21.25-11.82,47.46-11.82s47.45,5.29,47.45,11.82V126.45c0-6.53-21.25-11.82-47.45-11.82" transform="translate(-1.26 -0.66)"/><path d="M237.92,132.6c18.81,0,38.56,2.91,45.94,8.38V126.45c0-1.85-3.36-4.67-12.78-7-8.84-2.2-20.62-3.41-33.16-3.41s-24.32,1.21-33.16,3.41c-9.43,2.35-12.79,5.17-12.79,7V141c7.38-5.47,27.13-8.38,45.95-8.38m47.45,14.58a1.45,1.45,0,0,1-1.51-1.38c0-1.85-3.36-4.67-12.78-7-8.84-2.2-20.62-3.41-33.16-3.41s-24.32,1.21-33.16,3.41c-9.43,2.35-12.79,5.17-12.79,7a1.51,1.51,0,0,1-3,0V126.45c0-8.57,25.22-13.2,49-13.2s49,4.63,49,13.2V145.8a1.45,1.45,0,0,1-1.51,1.38" transform="translate(-1.26 -0.66)"/><path class="cls-1" d="M237.92,107.51c-29.18,0-52.84,6.13-52.84,14,0,3.19,1.92,9.22,5.38,10.8v-5.87c0-6.53,21.25-11.82,47.46-11.82s47.45,5.29,47.45,11.82v5.33c3.43-1.54,5.38-7.42,5.38-10.26,0-7.88-23.65-14-52.83-14" transform="translate(-1.26 -0.66)"/><path d="M237.92,108.89c-30.7,0-51.33,6.53-51.33,12.63A15.33,15.33,0,0,0,189,129v-2.55c0-8.57,25.22-13.2,49-13.2s49,4.63,49,13.2v2.07a14.17,14.17,0,0,0,2.36-7c0-6.1-20.62-12.63-51.32-12.63M190.46,133.7a1.79,1.79,0,0,1-.67-.14c-4.34-2-6.21-8.93-6.21-12,0-10,28-15.4,54.34-15.4s54.34,5.4,54.34,15.4c0,3.12-2.08,9.64-6.23,11.5a1.63,1.63,0,0,1-1.46-.07,1.35,1.35,0,0,1-.71-1.17v-5.33c0-1.85-3.36-4.67-12.78-7-8.84-2.2-20.62-3.41-33.16-3.41s-24.32,1.21-33.16,3.41c-9.43,2.35-12.79,5.17-12.79,7v5.87a1.35,1.35,0,0,1-.71,1.17,1.59,1.59,0,0,1-.8.21" transform="translate(-1.26 -0.66)"/><path class="cls-1" d="M237.92,107.51c18.88,0,35.44,2.56,44.78,6.51L270.84,93.21c-2.07-4-15.73-7.45-32.92-7.45S207.23,89.21,205,93.21L193.13,114c9.35-4,25.91-6.51,44.79-6.51" transform="translate(-1.26 -0.66)"/><path d="M237.92,87.15c-17.2,0-29.78,3.47-31.58,6.69l-10,17.49c10.1-3.29,25.2-4.78,41.55-4.78s31.45,1.49,41.55,4.78l-10-17.48,0,0c-1.63-3.2-14.16-6.65-31.55-6.65M282.7,115.4a1.72,1.72,0,0,1-.63-.12c-9.47-4-26-6.39-44.15-6.39s-34.69,2.39-44.16,6.39A1.62,1.62,0,0,1,192,115a1.3,1.3,0,0,1-.24-1.59l11.86-20.81c2.64-4.74,17.05-8.19,34.26-8.19,14.92,0,31.46,2.82,34.27,8.21L284,113.38a1.29,1.29,0,0,1-.25,1.59,1.58,1.58,0,0,1-1.09.43" transform="translate(-1.26 -0.66)"/><path class="cls-1" d="M237.92,355c-24.77,0-45.63-4.34-51.86-10.44v8.13c0,7.14,23.21,12.92,51.86,12.92s51.86-5.78,51.86-12.92v-8.13c-6.24,6.1-27.09,10.44-51.86,10.44" transform="translate(-1.26 -0.66)"/><path d="M187.56,347.54v5.18c0,2.08,3.7,5.22,14.08,7.8,9.67,2.41,22.55,3.74,36.28,3.74s26.6-1.33,36.27-3.74c10.38-2.58,14.08-5.72,14.08-7.8v-5.18c-8.62,5.38-28,8.87-50.35,8.87s-41.74-3.49-50.36-8.87M237.92,367c-25.88,0-53.37-5-53.37-14.31v-8.13a1.4,1.4,0,0,1,.95-1.29,1.62,1.62,0,0,1,1.66.34c6,5.89,26.89,10,50.76,10s44.73-4.11,50.76-10a1.6,1.6,0,0,1,1.65-.34,1.39,1.39,0,0,1,1,1.29v8.13c0,9.29-27.5,14.31-53.37,14.31" transform="translate(-1.26 -0.66)"/><path d="M285.37,324.66c0-6.53-21.25-11.82-47.45-11.82s-47.46,5.29-47.46,11.82,21.25,11.82,47.46,11.82,47.45-5.29,47.45-11.82" transform="translate(-1.26 -0.66)"/><path d="M237.92,314.22c-12.55,0-24.32,1.22-33.16,3.42-9.43,2.35-12.79,5.16-12.79,7s3.36,4.67,12.79,7c8.84,2.2,20.61,3.41,33.16,3.41s24.32-1.21,33.16-3.41c9.42-2.35,12.78-5.17,12.78-7s-3.36-4.67-12.78-7c-8.84-2.2-20.62-3.42-33.16-3.42m0,23.64c-23.74,0-49-4.62-49-13.2s25.22-13.2,49-13.2,49,4.63,49,13.2-25.23,13.2-49,13.2" transform="translate(-1.26 -0.66)"/><path class="cls-1" d="M285.37,324.66c0,6.53-21.25,11.82-47.45,11.82s-47.46-5.29-47.46-11.82h0v11.58c0,6.52,21.25,11.82,47.46,11.82s47.45-5.3,47.45-11.82Z" transform="translate(-1.26 -0.66)"/><path d="M192,329.48v6.76c0,1.85,3.36,4.67,12.79,7,8.84,2.2,20.61,3.41,33.16,3.41s24.32-1.21,33.16-3.41c9.42-2.35,12.78-5.17,12.78-7v-6.76c-7.38,5.48-27.13,8.38-45.94,8.38S199.35,335,192,329.48m45.95,20c-23.74,0-49-4.63-49-13.2V324.66a1.51,1.51,0,0,1,3,0c0,1.85,3.36,4.67,12.79,7,8.84,2.2,20.61,3.42,33.16,3.42s24.32-1.22,33.16-3.42c9.42-2.35,12.78-5.17,12.78-7a1.52,1.52,0,0,1,3,0v11.58c0,8.57-25.23,13.2-49,13.2" transform="translate(-1.26 -0.66)"/><path class="cls-1" d="M285.37,334.26v2c0,6.52-21.25,11.82-47.45,11.82s-47.46-5.3-47.46-11.82v-2.18c-4,1.42-6.31,3.54-6.31,6.71,0,8,24.07,14.26,53.77,14.26s53.76-6.24,53.76-14.26c0-3-2.3-5.09-6.31-6.51" transform="translate(-1.26 -0.66)"/><path d="M189,336.23c-2.92,1.52-3.3,3.27-3.3,4.54,0,6.21,21,12.87,52.26,12.87s52.26-6.66,52.26-12.87c0-1.19-.39-2.85-3.31-4.35-.35,8.46-25.39,13-49,13-23.74,0-49-4.63-49-13.2Zm49,20.18c-26.8,0-55.28-5.48-55.28-15.64,0-3.61,2.45-6.3,7.28-8a1.6,1.6,0,0,1,1.4.15,1.35,1.35,0,0,1,.65,1.14v2.18c0,1.85,3.36,4.67,12.79,7,8.84,2.2,20.61,3.41,33.16,3.41s24.32-1.21,33.16-3.41c9.42-2.35,12.78-5.17,12.78-7v-2a1.36,1.36,0,0,1,.66-1.14,1.59,1.59,0,0,1,1.39-.15c4.83,1.71,7.28,4.33,7.28,7.8,0,10.16-28.48,15.64-55.27,15.64" transform="translate(-1.26 -0.66)"/><path class="cls-4" d="M237.55,139.14c-20.21,0-36.59,3.56-36.59,8V321.73c0,4.4,16.38,8,36.59,8s36.59-3.56,36.59-8V147.1c0-4.4-16.38-8-36.59-8" transform="translate(-1.26 -0.66)"/><path d="M205.31,106.5q1.44-3,2.95-6a60.81,60.81,0,0,1,5.13-9c-3,1-5.13,2.07-5.5,2.8l-.06.11L199.57,109c1.61-.43,3.32-.83,5.1-1.2.22-.43.44-.86.64-1.28" transform="translate(-1.26 -0.66)"/><path d="M199.19,125.7c0-1-.05-2,0-3-4.4,1.73-5.57,3.27-5.57,3.8v11.93a36,36,0,0,1,5.5-2.3c0-2.2,0-8.19.05-10.38" transform="translate(-1.26 -0.66)"/><path d="M271.45,107.81q2.61.54,5,1.17l-8.26-14.49a.6.6,0,0,1-.06-.11c-.26-.51-1.38-1.19-3-1.88Z" transform="translate(-1.26 -0.66)"/><path d="M262.3,91.48a48.85,48.85,0,0,0-10.84-2.18c5,1.39,5.46,3.6,6.69,8.91,1.6,6.85-4,7.18-4,7.18h0c4.85.4,9.44,1,13.65,1.72Z" transform="translate(-1.26 -0.66)"/><path d="M215.31,91.11l4.26-1s-2.32,1-4.49,7.21c-2.93,8.42.36,8.36.36,8.36l-7.29,1.43Z" transform="translate(-1.26 -0.66)"/><path d="M226.35,89.16c.88-.21,4.27-.39,4.69-.47a2.37,2.37,0,0,0-1.79,2.36c-.47,3.62-1,10.73-1.19,11.73s1.42,1.73,2.76,1.88c-2.67.08-7,.39-8.37.46,1.55-.65,2.57-1.26,2.85-2.34.51-2,3-11.44,2.56-12.67a1.27,1.27,0,0,0-1.51-1" transform="translate(-1.26 -0.66)"/><path d="M275.59,122.21c-1.23-.41-3.27-1-4.91-1.45A155,155,0,0,0,252.36,118c2.32,1.14,3.91,2,4.11,5.53a8,8,0,0,1-6.19,8.11h0a124.68,124.68,0,0,1,25.32,4.09Z" transform="translate(-1.26 -0.66)"/><path d="M278.81,123.54v13.23a33.66,33.66,0,0,1,3.54,1.6V126.45c0-.44-.79-1.56-3.54-2.91" transform="translate(-1.26 -0.66)"/><path d="M201.35,122v13.48s2.8-.89,4-1.15c-2-1.2-2.13-12.1,0-13.64-1.57.44-4,1.31-4,1.31" transform="translate(-1.26 -0.66)"/><path d="M216,118.47l6.5-.76c-1.14.25-1.75.74-1.82,1.57-.21,2.48-.33,9.66-.21,10.89a2.64,2.64,0,0,0,2.39,1.82,43.29,43.29,0,0,0-7.47.71,3.41,3.41,0,0,0,2.37-2.38,100.9,100.9,0,0,0,0-11.15c-.27-.94-1.76-.7-1.76-.7" transform="translate(-1.26 -0.66)"/><path class="cls-3" d="M241.05,117.3H234.4c1.17.11,1.79.54,1.86,1.36.21,2.46.34,9.62.22,10.87a3.15,3.15,0,0,1-2.45,2.09,45,45,0,0,1,7.64-.15,3,3,0,0,1-2.42-2.11,96.24,96.24,0,0,1,0-11.15c.27-1,1.8-.9,1.8-.9" transform="translate(-1.26 -0.66)"/><path class="cls-3" d="M242.58,88.91,236,88.69c1.17.16,1.81.65,1.93,1.56.35,2.72.9,10.6.85,12a2.85,2.85,0,0,1-2.3,2.22,40.21,40.21,0,0,1,7.57.08,3.44,3.44,0,0,1-2.53-2.4,120.69,120.69,0,0,1-.66-12.28c.21-1,1.73-.94,1.73-.94" transform="translate(-1.26 -0.66)"/><path d="M199,337c0,1,0,2,0,3-4.41-1.72-5.58-3.27-5.58-3.8v-4.16a36.87,36.87,0,0,0,5.52,2.3c0,2.2,0,.41,0,2.61" transform="translate(-1.26 -0.66)"/><path d="M275.57,340.52c-1.23.41-3.28,1-4.91,1.44a154.7,154.7,0,0,1-18.36,2.81c2.32-1.15,2.4-2,2.24-3.29s-.37-1.86-4.33-2.63h0a123.71,123.71,0,0,0,25.37-4.09Z" transform="translate(-1.26 -0.66)"/><path d="M278.8,339.28v-5.61a31.1,31.1,0,0,0,3.55-1.6v4.29c0,.44-.79,1.57-3.55,2.92" transform="translate(-1.26 -0.66)"/><path d="M201.18,340.73V335s2.81.89,4,1.16a3.54,3.54,0,0,0,0,5.87c-1.58-.43-4-1.31-4-1.31" transform="translate(-1.26 -0.66)"/><path d="M215.89,343.91l6.51.77a2.65,2.65,0,0,1-2-2.16,8.7,8.7,0,0,1,0-2.14,2.61,2.61,0,0,1,2.39-1.83,43.42,43.42,0,0,1-7.48-.71,3.5,3.5,0,0,1,2.37,2.39,4.62,4.62,0,0,1,0,2.5c-.26.94-1.76,1.18-1.76,1.18" transform="translate(-1.26 -0.66)"/><path class="cls-3" d="M232.66,345.1l6.59.15a2.35,2.35,0,0,1-2-2,8.69,8.69,0,0,1,0-2.14,3,3,0,0,1,2.42-2.05,44,44,0,0,1-7.57,0,3.07,3.07,0,0,1,2.4,2.16,4.63,4.63,0,0,1,0,2.5c-.27,1-1.78,1.35-1.78,1.35" transform="translate(-1.26 -0.66)"/><path d="M195.15,357.06c-4.85-1.9-6.13-3.6-6.13-4.19v-2.95a39.36,39.36,0,0,0,6.06,2.53c0,1.4,0,3.49.07,4.61" transform="translate(-1.26 -0.66)"/><path d="M279.33,357.58c-1.35.45-3.6,1.15-5.4,1.59a172.28,172.28,0,0,1-20.2,3.09c1.73-1,1.26-2,1.2-2.87s-.84-1.54-3.49-2h0a137.35,137.35,0,0,0,27.9-4.5Z" transform="translate(-1.26 -0.66)"/><path d="M282.88,356.08v-4.4a35.92,35.92,0,0,0,3.91-1.76v2.95c0,.48-.87,1.73-3.91,3.21" transform="translate(-1.26 -0.66)"/><path d="M197.51,357.92v-4.77s3.08.91,4.41,1.16c-2.21,1.41-2.35,3.19,0,4.85-1.73-.44-4.41-1.24-4.41-1.24" transform="translate(-1.26 -0.66)"/><path d="M213.69,361.34l7.17.83a2.69,2.69,0,0,1-2.25-3.12,2.89,2.89,0,0,1,2.64-1.91,79.18,79.18,0,0,1-8.23-.87c1.75.64,3,2,2.61,3.77-.23,1-1.94,1.3-1.94,1.3" transform="translate(-1.26 -0.66)"/><path d="M277.62,367v11.55A16.51,16.51,0,0,1,270,392.29c9.32-4.38,11-9,11-16.68V362.88c-1.07.37-2.19.72-3.38,1.05Z" transform="translate(-1.26 -0.66)"/><path d="M274.45,364.75A167.53,167.53,0,0,1,248,368.21c1.71.33,4.72,2,4.72,4.26,0,1.22,0,2,0,10.06,0,6.42-2,12.22-14.79,14.39,0,0,8.71,0,14.8-.65a66.66,66.66,0,0,0,11.34-2.06c7.88-2.32,10.39-8.07,10.39-18.07Z" transform="translate(-1.26 -0.66)"/><path d="M215.48,367.17c1.49.47,2.17,1.9,2.17,4.45,0,.05,0,4.46,0,11.21,0,.59,0,1.19,0,1.78,0,6.25,5.09,11.52,11.86,12.21l.92.1c-9.13-2.4-10.08-8.38-10.08-13.32,0-6.71,0-11.45,0-11.45a4.25,4.25,0,0,1,3.44-4.08c-2.28-.17-6.13-.65-8.28-.9" transform="translate(-1.26 -0.66)"/><path d="M205.43,365.73c-1.18-.18-3.93-.83-3.93-.83v16.57a14.26,14.26,0,0,0,10.73,13.47l.13,0c-3-1.82-8.63-4.64-8.63-14.41,0-4.93.26-7.44.26-11.19,0-2.54.94-3.4,1.44-3.65" transform="translate(-1.26 -0.66)"/><path d="M206.24,393.08c-7.35-5.31-6.89-9.55-6.9-12.57,0-8.44,0-15.58,0-16.11a40.59,40.59,0,0,1-5.3-1.76v16c0,4.38,3,10.53,12.21,14.45" transform="translate(-1.26 -0.66)"/><path class="cls-5" d="M257.69,328.61c7.73-1.8,13.15-7.05,16.45-12.62V292.24c-12.41,20.42-49,20.7-66.65,34.24-2.65,2,41.15,4.24,50.2,2.13" transform="translate(-1.26 -0.66)"/><path class="cls-5" d="M273.73,145.91c-2.13-3.09-12.41-5.6-25.92-6.46-18.09,6.61-39,10.32-46.85,23.41v23.75c13.08-23,60.07-21,72.77-40.7" transform="translate(-1.26 -0.66)"/><path class="cls-6" d="M201,205.54V229.3c13.22-23.25,61.1-20.93,73.18-41.36V164.19c-14.28,23.49-60.54,20.33-73.18,41.35" transform="translate(-1.26 -0.66)"/><path class="cls-6" d="M201,290.91v23.75c13.22-23.24,61.1-20.92,73.18-41.35V249.55c-14.28,23.5-60.54,20.33-73.18,41.36" transform="translate(-1.26 -0.66)"/><path class="cls-5" d="M201,248.23V272c13.22-23.25,61.1-20.93,73.18-41.36V206.87c-14.28,23.5-60.54,20.33-73.18,41.36" transform="translate(-1.26 -0.66)"/><path d="M275.21,147.87a36.07,36.07,0,0,1-3.28,4,30.8,30.8,0,0,1-4.85,4.09,59.54,59.54,0,0,1-12.26,6.2c-1.82.7-3.67,1.35-5.52,2,7.5-3.21,15.06-6.82,20.4-12.77a29.75,29.75,0,0,0,3.36-4.74l2.15,1.19" transform="translate(-1.26 -0.66)"/><path d="M275.21,151.65a36,36,0,0,1-3.22,4,30.87,30.87,0,0,1-4.76,4.05,56.75,56.75,0,0,1-12.09,6.19c-1.92.75-3.88,1.43-5.84,2.1,7.5-3.21,15.06-6.82,20.4-12.78a29.75,29.75,0,0,0,3.36-4.74l2.15,1.19" transform="translate(-1.26 -0.66)"/><path d="M275.21,155.44a36.87,36.87,0,0,1-3.22,4,30.87,30.87,0,0,1-4.76,4.05,56.78,56.78,0,0,1-12.09,6.2c-1.92.75-3.88,1.43-5.84,2.1,7.5-3.21,15.06-6.83,20.4-12.79a29.67,29.67,0,0,0,3.36-4.73Z" transform="translate(-1.26 -0.66)"/><path d="M275.21,159.22a36.87,36.87,0,0,1-3.22,4,31.49,31.49,0,0,1-4.76,4.06,57.25,57.25,0,0,1-12.09,6.2c-1.92.75-3.88,1.43-5.84,2.1,7.5-3.21,15.06-6.83,20.4-12.8a29.67,29.67,0,0,0,3.36-4.73l2.15,1.19" transform="translate(-1.26 -0.66)"/><path d="M275.21,163a36.87,36.87,0,0,1-3.22,4,31.49,31.49,0,0,1-4.76,4.06,56.82,56.82,0,0,1-12.09,6.21c-1.92.75-3.88,1.43-5.84,2.1,7.5-3.21,15.06-6.84,20.4-12.81a29.67,29.67,0,0,0,3.36-4.73l2.15,1.19" transform="translate(-1.26 -0.66)"/><path d="M275.21,190.69a36,36,0,0,1-3.28,4,30.8,30.8,0,0,1-4.85,4.09A59.57,59.57,0,0,1,254.82,205c-1.82.7-3.67,1.34-5.52,2,7.5-3.21,15.06-6.81,20.4-12.77a29.67,29.67,0,0,0,3.36-4.73Z" transform="translate(-1.26 -0.66)"/><path d="M275.21,194.47a36.87,36.87,0,0,1-3.22,4,30.87,30.87,0,0,1-4.76,4.05,56.78,56.78,0,0,1-12.09,6.2c-1.92.74-3.88,1.42-5.84,2.09,7.5-3.21,15.06-6.82,20.4-12.78a29.67,29.67,0,0,0,3.36-4.73Z" transform="translate(-1.26 -0.66)"/><path d="M275.21,198.25a38,38,0,0,1-3.22,4,32,32,0,0,1-4.76,4,56.75,56.75,0,0,1-12.09,6.19c-1.92.75-3.88,1.43-5.84,2.1,7.5-3.21,15.06-6.82,20.4-12.79a29.23,29.23,0,0,0,3.36-4.73Z" transform="translate(-1.26 -0.66)"/><path d="M275.21,202a37,37,0,0,1-3.22,4,30.87,30.87,0,0,1-4.76,4,56.32,56.32,0,0,1-12.09,6.2c-1.92.75-3.88,1.43-5.84,2.1,7.5-3.21,15.06-6.83,20.4-12.79a29.75,29.75,0,0,0,3.36-4.74Z" transform="translate(-1.26 -0.66)"/><path d="M275.21,205.81a37,37,0,0,1-3.22,4,30.87,30.87,0,0,1-4.76,4,56.82,56.82,0,0,1-12.09,6.21c-1.92.75-3.88,1.43-5.84,2.1,7.5-3.21,15.06-6.83,20.4-12.8a29.75,29.75,0,0,0,3.36-4.74Z" transform="translate(-1.26 -0.66)"/><path d="M275.21,233.31a36,36,0,0,1-3.28,4,30.8,30.8,0,0,1-4.85,4.09,59.57,59.57,0,0,1-12.26,6.21c-1.82.7-3.67,1.34-5.52,2,7.5-3.21,15.06-6.81,20.4-12.77a29.67,29.67,0,0,0,3.36-4.73l2.15,1.19" transform="translate(-1.26 -0.66)"/><path d="M275.21,237.09a36.87,36.87,0,0,1-3.22,4,30.87,30.87,0,0,1-4.76,4.05,56.78,56.78,0,0,1-12.09,6.2c-1.92.74-3.88,1.42-5.84,2.09,7.5-3.21,15.06-6.82,20.4-12.78a29.67,29.67,0,0,0,3.36-4.73Z" transform="translate(-1.26 -0.66)"/><path d="M275.21,240.87a38,38,0,0,1-3.22,4,32,32,0,0,1-4.76,4,56.75,56.75,0,0,1-12.09,6.19c-1.92.75-3.88,1.43-5.84,2.1,7.5-3.21,15.06-6.82,20.4-12.79a29.23,29.23,0,0,0,3.36-4.73Z" transform="translate(-1.26 -0.66)"/><path d="M275.21,244.65a37,37,0,0,1-3.22,4,30.87,30.87,0,0,1-4.76,4.05,56.32,56.32,0,0,1-12.09,6.2c-1.92.75-3.88,1.43-5.84,2.1,7.5-3.21,15.06-6.83,20.4-12.79a29.75,29.75,0,0,0,3.36-4.74l2.15,1.19" transform="translate(-1.26 -0.66)"/><path d="M275.21,248.43a37,37,0,0,1-3.22,4,30.87,30.87,0,0,1-4.76,4.05,56.82,56.82,0,0,1-12.09,6.21c-1.92.75-3.88,1.43-5.84,2.1,7.5-3.21,15.06-6.83,20.4-12.8a29.75,29.75,0,0,0,3.36-4.74Z" transform="translate(-1.26 -0.66)"/><path d="M275.21,276a36.07,36.07,0,0,1-3.28,4.05,30.21,30.21,0,0,1-4.85,4.08,59.08,59.08,0,0,1-12.26,6.21c-1.82.7-3.67,1.34-5.52,2,7.5-3.21,15.06-6.82,20.4-12.78a29.23,29.23,0,0,0,3.36-4.73Z" transform="translate(-1.26 -0.66)"/><path d="M275.21,279.8a36,36,0,0,1-3.22,4,31.43,31.43,0,0,1-4.76,4A57.21,57.21,0,0,1,255.14,294c-1.92.75-3.88,1.43-5.84,2.1,7.5-3.21,15.06-6.82,20.4-12.78a29.75,29.75,0,0,0,3.36-4.74l2.15,1.19" transform="translate(-1.26 -0.66)"/><path d="M275.21,283.58a36,36,0,0,1-3.22,4,30.87,30.87,0,0,1-4.76,4.05,57.25,57.25,0,0,1-12.09,6.2c-1.92.75-3.88,1.43-5.84,2.1,7.5-3.21,15.06-6.83,20.4-12.79a29.75,29.75,0,0,0,3.36-4.74Z" transform="translate(-1.26 -0.66)"/><path d="M275.21,287.36a36,36,0,0,1-3.22,4,30.87,30.87,0,0,1-4.76,4,56.82,56.82,0,0,1-12.09,6.21c-1.92.75-3.88,1.43-5.84,2.1,7.5-3.21,15.06-6.83,20.4-12.8a29.67,29.67,0,0,0,3.36-4.73Z" transform="translate(-1.26 -0.66)"/><path d="M275.21,291.14a36,36,0,0,1-3.22,4,31.49,31.49,0,0,1-4.76,4.06,56.82,56.82,0,0,1-12.09,6.21c-1.92.75-3.88,1.43-5.84,2.1,7.5-3.21,15.06-6.84,20.4-12.81a29.67,29.67,0,0,0,3.36-4.73Z" transform="translate(-1.26 -0.66)"/><path d="M200.77,329.73a33.78,33.78,0,0,1,8.75-7.33,29.57,29.57,0,0,0-6.68,8.23c-.19.36-2.29-.63-2.07-.9" transform="translate(-1.26 -0.66)"/><path d="M200.1,326.79a33.37,33.37,0,0,1,9.43-8.18,29.56,29.56,0,0,0-7.26,9.33l-2.17-1.15" transform="translate(-1.26 -0.66)"/><path d="M200.1,323a33.37,33.37,0,0,1,9.43-8.18,29.56,29.56,0,0,0-7.26,9.33L200.1,323" transform="translate(-1.26 -0.66)"/><path d="M200.1,319.23a33.56,33.56,0,0,1,9.43-8.19,29.71,29.71,0,0,0-7.26,9.34l-2.17-1.15" transform="translate(-1.26 -0.66)"/><path d="M200.1,315.45a33.25,33.25,0,0,1,9.43-8.19,29.71,29.71,0,0,0-7.26,9.34l-2.17-1.15" transform="translate(-1.26 -0.66)"/><path d="M200.1,287.75a33.5,33.5,0,0,1,9.43-8.17,29.56,29.56,0,0,0-7.26,9.33l-2.17-1.16" transform="translate(-1.26 -0.66)"/><path d="M200.1,284a33.34,33.34,0,0,1,9.43-8.17,29.52,29.52,0,0,0-7.26,9.32L200.1,284" transform="translate(-1.26 -0.66)"/><path d="M200.1,280.19a33.37,33.37,0,0,1,9.43-8.18,29.67,29.67,0,0,0-7.26,9.33l-2.17-1.15" transform="translate(-1.26 -0.66)"/><path d="M200.1,276.41a33.37,33.37,0,0,1,9.43-8.18,29.56,29.56,0,0,0-7.26,9.33l-2.17-1.15" transform="translate(-1.26 -0.66)"/><path d="M200.1,272.63a33.56,33.56,0,0,1,9.43-8.19,29.71,29.71,0,0,0-7.26,9.34l-2.17-1.15" transform="translate(-1.26 -0.66)"/><path d="M200.1,245.13a33.5,33.5,0,0,1,9.43-8.17,29.56,29.56,0,0,0-7.26,9.33l-2.17-1.16" transform="translate(-1.26 -0.66)"/><path d="M200.1,241.35a33.34,33.34,0,0,1,9.43-8.17,29.64,29.64,0,0,0-7.26,9.32l-2.17-1.15" transform="translate(-1.26 -0.66)"/><path d="M200.1,237.57a33.37,33.37,0,0,1,9.43-8.18,29.67,29.67,0,0,0-7.26,9.33l-2.17-1.15" transform="translate(-1.26 -0.66)"/><path d="M200.1,233.79a33.37,33.37,0,0,1,9.43-8.18,29.56,29.56,0,0,0-7.26,9.33l-2.17-1.15" transform="translate(-1.26 -0.66)"/><path d="M200.1,230a33.37,33.37,0,0,1,9.43-8.18,29.56,29.56,0,0,0-7.26,9.33L200.1,230" transform="translate(-1.26 -0.66)"/><path d="M200.1,202.42a33.18,33.18,0,0,1,9.43-8.17,29.52,29.52,0,0,0-7.26,9.32l-2.17-1.15" transform="translate(-1.26 -0.66)"/><path d="M200.1,198.64a33.37,33.37,0,0,1,9.43-8.18,29.67,29.67,0,0,0-7.26,9.33l-2.17-1.15" transform="translate(-1.26 -0.66)"/><path d="M200.1,194.86a33.37,33.37,0,0,1,9.43-8.18,29.56,29.56,0,0,0-7.26,9.33l-2.17-1.15" transform="translate(-1.26 -0.66)"/><path d="M200.1,191.08a33.56,33.56,0,0,1,9.43-8.19,29.71,29.71,0,0,0-7.26,9.34l-2.17-1.15" transform="translate(-1.26 -0.66)"/><path d="M200.1,187.3a33.4,33.4,0,0,1,9.43-8.19,29.71,29.71,0,0,0-7.26,9.34l-2.17-1.15" transform="translate(-1.26 -0.66)"/><path d="M200.1,159.73a33.18,33.18,0,0,1,9.43-8.17,29.52,29.52,0,0,0-7.26,9.32l-2.17-1.15" transform="translate(-1.26 -0.66)"/><path d="M200.1,156a33.15,33.15,0,0,1,9.43-8.16,29.38,29.38,0,0,0-7.26,9.31L200.1,156" transform="translate(-1.26 -0.66)"/><path d="M200.1,152.17a33.12,33.12,0,0,1,9.43-8.15,30.38,30.38,0,0,0-7.26,9.3l-2.17-1.15" transform="translate(-1.26 -0.66)"/><path d="M200.1,148.39a31.33,31.33,0,0,1,8.6-7.53,28.72,28.72,0,0,0-6.43,8.68l-2.17-1.15" transform="translate(-1.26 -0.66)"/><path class="cls-3" d="M192.59,145.48a23,23,0,0,1,2.57-1.89,26.63,26.63,0,0,1,3.79-1.86,57.52,57.52,0,0,1,8.86-2.74,119.87,119.87,0,0,1,19-2.74,167.25,167.25,0,0,1,19.9-.2A120.57,120.57,0,0,1,266,138.44a60.25,60.25,0,0,1,8.79,2.56,22.51,22.51,0,0,1,7.15,4c.34.31.65.65,1,1a20.25,20.25,0,0,0-6.38-3.47,62.46,62.46,0,0,0-8.67-2.4,135.11,135.11,0,0,0-18.73-2.52,174.75,174.75,0,0,0-19.82-.29,143.59,143.59,0,0,0-19,1.94,69.63,69.63,0,0,0-10,2.43,42,42,0,0,0-4.55,1.84,19.41,19.41,0,0,0-3.16,2" transform="translate(-1.26 -0.66)"/><path class="cls-3" d="M192.59,324.79a25,25,0,0,0,6.73,3.37,68.22,68.22,0,0,0,8.82,2.24,135.87,135.87,0,0,0,18.67,2.09,172.91,172.91,0,0,0,38.44-2.2,82.18,82.18,0,0,0,10-2.3,23.81,23.81,0,0,0,7.72-3.67,17,17,0,0,1-6,4.34,48.11,48.11,0,0,1-8.76,3.07,101.56,101.56,0,0,1-19,2.79,160.65,160.65,0,0,1-19.87.06A128.4,128.4,0,0,1,210,332a63.12,63.12,0,0,1-9-2.54,25,25,0,0,1-7.46-3.9l-.92-.79" transform="translate(-1.26 -0.66)"/><path d="M237.55,140.52c-23,0-35.08,4.28-35.08,6.58V321.73c0,2.3,12.05,6.58,35.08,6.58s35.08-4.28,35.08-6.58V147.1c0-2.3-12.05-6.58-35.08-6.58m0,190.56c-15.32,0-38.1-2.49-38.1-9.35V147.1c0-6.86,22.78-9.35,38.1-9.35s38.1,2.49,38.1,9.35V321.73c0,6.86-22.79,9.35-38.1,9.35" transform="translate(-1.26 -0.66)"/><path class="cls-3" d="M220.31,333.13c4.06.34,8.44.56,13,.65V136.53c-4.6.08-9,.31-13,.65Z" transform="translate(-1.26 -0.66)"/><path class="cls-3" d="M248.32,136.48l-.06,2.9-.14,7.86c-.07,3.86-.15,7.73-.22,11.59q-.14,7.06-.26,14.14-.15,7.74-.29,15.48l-.3,15.72-.27,14.57q-.1,6.15-.23,12.31c-.05,2.95-.11,5.9-.16,8.85,0,1.4,0,2.8-.08,4.2v.19l-.06-2.89q-.08-3.94-.14-7.87c-.08-3.86-.15-7.73-.22-11.59q-.13-7.06-.26-14.14-.15-7.74-.29-15.48L245,176.6,244.77,162q-.11-6.15-.23-12.31c0-2.95-.11-5.9-.16-8.85,0-.93,0-1.85,0-2.77a11.42,11.42,0,0,1,0-1.43v-.19Z" transform="translate(-1.26 -0.66)"/><polygon class="cls-3" points="213.47 331.74 214.98 162.85 216.49 331.74 213.47 331.74"/><path class="cls-3" d="M239.45,142.88c.12,3.78.24,7.56.34,11.33q.24,8.76.38,17.5c.1,6.43.21,12.86.28,19.28q.11,10,.18,20c.05,6.78.05,13.56.07,20.34s0,13.53,0,20.29-.08,13.42-.16,20.13c-.07,6.53-.13,13.07-.24,19.61-.11,6.11-.22,12.23-.37,18.34q-.18,7-.41,14l0,.94c-.12-3.78-.25-7.56-.35-11.34-.16-5.83-.27-11.66-.38-17.5q-.18-9.63-.28-19.28-.1-10-.18-20c0-6.78,0-13.56-.06-20.35s0-13.52,0-20.28.08-13.42.15-20.13q.12-9.81.26-19.61.15-9.18.36-18.34c.11-4.68.26-9.35.41-14l0-.94" transform="translate(-1.26 -0.66)"/><path class="cls-3" d="M262.65,143.6c.12,3.74.25,7.47.35,11.2.15,5.77.29,11.54.38,17.31q.15,9.46.27,18.95.11,9.87.19,19.73c.05,6.73,0,13.47.06,20.2s0,13.46,0,20.18-.09,13.24-.16,19.85c-.07,6.45-.14,12.91-.25,19.36q-.15,9-.37,18.07c-.11,4.63-.26,9.27-.41,13.91l0,.92c-.12-3.73-.24-7.46-.34-11.2-.16-5.76-.28-11.53-.39-17.3q-.18-9.48-.27-19-.11-9.85-.19-19.73c0-6.73,0-13.46-.06-20.2s0-13.45,0-20.18.09-13.23.16-19.85q.11-9.68.26-19.36.13-9,.35-18.06.18-7,.41-13.92Z" transform="translate(-1.26 -0.66)"/><path class="cls-3" d="M268.75,234.05q.31,7.72.45,15.46.19,9.68.26,19.35c.05,6.57.07,13.15,0,19.73-.05,6.38-.11,12.77-.23,19.15q-.15,8.11-.45,16.22c0,.41,0,.81-.05,1.21q-.3-7.68-.46-15.37c-.13-6.26-.2-12.53-.25-18.8q-.07-9.87,0-19.73t.23-19.5c.11-5.51.25-11,.45-16.52,0-.4,0-.8.05-1.2" transform="translate(-1.26 -0.66)"/><path class="cls-3" d="M211.33,141.12q.28,12.91.44,25.81.18,16.48.27,33,.08,17.08,0,34.17-.08,16.32-.24,32.65-.17,14.22-.46,28.44l0,.78q-.29-12.84-.44-25.68c-.11-10.67-.22-21.34-.26-32q-.09-17.08,0-34.16.06-16.64.25-33.29.15-14.45.46-28.89c0-.27,0-.53,0-.79" transform="translate(-1.26 -0.66)"/><path d="M263.29,350.57C267,350,272,349.05,275,348.24a35,35,0,0,0,4.69-1.43c1.39-.59,2.27-2.85.7-3.77a62.47,62.47,0,0,1-15.16,4.24c.76.69,1.4,2-2,3.29" transform="translate(-1.26 -0.66)"/><path d="M282.73,341.82c3.13.91.69,3.54.69,3.54,3.81-1.85,5.16-3.53,5.16-4.57a3.25,3.25,0,0,0-1.9-3.13l-.07.08a8.69,8.69,0,0,1-3.88,4.08" transform="translate(-1.26 -0.66)"/><path d="M193.78,342.21c-2.43-1.36-4-2.9-4.6-4.61-2.11,1.43-2.05,2.84-2,3.13.19,1.92,3.07,3.7,7.06,5.44-1.23-1-1.42-3.22-.44-4" transform="translate(-1.26 -0.66)"/><path d="M196,343.32a3.21,3.21,0,0,0,.81,3.61c1.28.55,5.69,1.78,6.13,1.92-2.25-.88-3.07-2.9-2.61-3.94a41.3,41.3,0,0,1-4.33-1.59" transform="translate(-1.26 -0.66)"/><path d="M216.49,351a30.4,30.4,0,0,0,4.66.55,3.74,3.74,0,0,1-3-3.23c-1.06-.12-2.11-.25-3.14-.39a2.86,2.86,0,0,0,1.45,3.07" transform="translate(-1.26 -0.66)"/><path d="M188.27,121.52a3.38,3.38,0,0,0,1.27,2.75c.86-1.6,2.65-3,5.16-4.28-.9-.79-.7-3,.48-3.91-3.9,1.73-6.91,4.18-6.91,5.44" transform="translate(-1.26 -0.66)"/><path d="M221.6,110.65a30.34,30.34,0,0,0-4.57.54c-1.66.8-1.51,2.71-1.38,3.45,1-.13,2-.25,3-.36a3.82,3.82,0,0,1,3-3.63" transform="translate(-1.26 -0.66)"/><path d="M274.44,114.22c-3-.8-7.92-1.92-11.51-2.49,3.62,1.43,2.52,2.91,1.71,3.57a66.8,66.8,0,0,1,15.08,4c1.63-.88,1.1-3,1.1-3a53,53,0,0,0-6.38-2.06" transform="translate(-1.26 -0.66)"/><path d="M287.73,121.52c0-1-1.19-2.36-3.73-3.76,0,0-.17,2.47-1.47,3a9.72,9.72,0,0,1,3.81,3.59,3.31,3.31,0,0,0,1.39-2.82" transform="translate(-1.26 -0.66)"/><path d="M203.77,113.39c-.44.14-4.76,1.37-6,1.92A3.27,3.27,0,0,0,197,119a44.17,44.17,0,0,1,4.31-1.47c-.61-1,.15-3.18,2.48-4.11" transform="translate(-1.26 -0.66)"/><path class="cls-3" d="M232.36,352.42l6.59.07c-1.16-.06-1.95-.56-2-1a2.16,2.16,0,0,1,0-1.06c0-.32,1-.91,2.42-1-2.69.1-5.95.11-7.57,0,1.62.21,2.26.74,2.4,1.07a1.2,1.2,0,0,1,0,1.24c-.27.48-1.78.67-1.78.67" transform="translate(-1.26 -0.66)"/><path class="cls-3" d="M232.3,362.85l5.92.13a2.07,2.07,0,0,1-1.81-1.73,7.58,7.58,0,0,1,0-1.88,2.66,2.66,0,0,1,2.18-1.8,40.14,40.14,0,0,1-6.81,0,2.77,2.77,0,0,1,2.16,1.91,3.94,3.94,0,0,1,0,2.2c-.24.84-1.6,1.18-1.6,1.18" transform="translate(-1.26 -0.66)"/><path class="cls-3" d="M232.36,396.4l6.59.14a2.33,2.33,0,0,1-2-2c-.11-1.22-.11-23.05,0-24a3,3,0,0,1,2.42-2,44.9,44.9,0,0,1-7.57,0,3.06,3.06,0,0,1,2.4,2.16c.24,1.21.21,23.6,0,24.36-.27,1-1.78,1.35-1.78,1.35" transform="translate(-1.26 -0.66)"/><path class="cls-3" d="M235.62,113.26l6.59.08c-1.16-.08-2-.66-2-1.15a2.94,2.94,0,0,1,0-1.24c0-.37,1-1.06,2.42-1.19a75.6,75.6,0,0,1-7.57,0c1.62.25,2.26.86,2.4,1.26a1.59,1.59,0,0,1,0,1.45c-.27.56-1.78.79-1.78.79" transform="translate(-1.26 -0.66)"/></g><g id="Layer_2" data-name="Layer 2"><path class="cls-3" d="M330.53,215.79c-10.06,0-20.25,5.42-20.25,15.78v22.5a260,260,0,0,1-29.15,5.79A326.94,326.94,0,0,1,238,263.1a390,390,0,0,1-43.92-3.35,227.36,227.36,0,0,1-39-8.84c9.91-5.63,22.84-11.23,38.29-16.6V183.57l-.59.17C145.21,199.53,123,215.6,123,234.3v41.91c0,3.54,1.42,12.52,14.62,19.4,12.53,6.54,32.31,12,55.63,15.38.73.12,18.18,3,43.76,3.07h1.12a309.27,309.27,0,0,0,43.81-3c23.71-3.37,43.74-8.87,56.42-15.49,13.2-6.88,14.62-15.86,14.62-19.4v-41c0-9.33-7-19.37-22.47-19.37" transform="translate(-1.26 -0.66)"/><path class="cls-3" d="M338.35,123.36c-12.68-6-32.71-10.92-56.39-14a290.69,290.69,0,0,0-48.54-2.91c-23.57.72-40,3-40.12,3-23.38,3-43.16,8-55.69,13.86C124.42,129.57,123,137.65,123,140.84v37c0,8.41,7,17.46,22.47,17.46a27.27,27.27,0,0,0,13.06-3.06c4.57-2.55,7.19-6.62,7.19-11.16V160.8a282.89,282.89,0,0,1,28.37-5.12l.16,0c.14,0,14.26-2.61,42.4-2.76s44.23,2.64,44.39,2.67l.14,0a278.91,278.91,0,0,1,31.16,5.71c-8.2,2.73-18.32,5.63-30.7,8.81v45.33l.7-.18C327.07,203.82,353,194,353,177.83v-37c0-3.19-1.42-11.27-14.62-17.48" transform="translate(-1.26 -0.66)"/><path d="M328.78,257.9a25.15,25.15,0,0,0,9.12-2.59,19.48,19.48,0,0,0,5.53-3.63c-.25.35-.47.78-.7,1a18.11,18.11,0,0,1-4.16,3.41c-3.1,1.95-6.48,3.16-9.79,4.63a25.59,25.59,0,0,0,8.63-2.49,20.29,20.29,0,0,0,5.92-3.88,10.68,10.68,0,0,1-.59.92,18.19,18.19,0,0,1-4.13,3.51c-3.11,2-6.51,3.25-9.83,4.8a26.82,26.82,0,0,0,8.52-2.57,20.05,20.05,0,0,0,5.92-3.95,8.48,8.48,0,0,1-.55.9,18.13,18.13,0,0,1-4.26,3.66c-3,2-6.4,3.23-9.63,4.81a27.92,27.92,0,0,0,8.44-2.65,20.26,20.26,0,0,0,5.94-4,8.88,8.88,0,0,1-.48.8,17.63,17.63,0,0,1-4.13,3.68c-3.07,2.1-6.49,3.38-9.77,5.06a29.54,29.54,0,0,0,8.48-2.79,20.18,20.18,0,0,0,5.84-4.07,6.87,6.87,0,0,1-.41.7,17.76,17.76,0,0,1-4.34,4c-3,2.07-6.38,3.35-9.57,5.06a30.65,30.65,0,0,0,8.52-2.94,19.89,19.89,0,0,0,5.75-4.11,5.68,5.68,0,0,1-.36.62,17.64,17.64,0,0,1-4.3,4.06c-3,2.13-6.42,3.45-9.61,5.22a31.76,31.76,0,0,0,8.56-3.07,20.28,20.28,0,0,0,5.69-4.18c-.09.16-.17.32-.26.45a17.64,17.64,0,0,1-4.35,4.27c-3,2.18-6.44,3.54-9.64,5.39a32.28,32.28,0,0,0,8.89-3.37,20.11,20.11,0,0,0,5.3-4,2.74,2.74,0,0,1-.19.34,17,17,0,0,1-4.21,4.29c-3.06,2.29-6.55,3.7-9.79,5.65a33.38,33.38,0,0,0,9.2-3.68,19.76,19.76,0,0,0,4.93-3.89l-.12.21a17.21,17.21,0,0,1-4.19,4.4c-3.06,2.35-6.57,3.8-9.82,5.81a34.18,34.18,0,0,0,9.24-3.82,20.08,20.08,0,0,0,4.82-3.89c0,.07-.07.14-.11.2a17,17,0,0,1-4.1,4.39c-3.06,2.41-6.6,3.9-9.85,6a35.4,35.4,0,0,0,9.38-4,19.8,19.8,0,0,0,4.65-3.87h0a17.26,17.26,0,0,1-4.14,4.62c-3.06,2.47-6.63,4-9.88,6.15,6.33-1.79,15.58-6.63,16.3-13.05.13-1.14.07-26.73-.08-26.42v-2.69c-.63.84-1.74,2.34-2.08,2.74a16.81,16.81,0,0,1-4.25,3.46,68.77,68.77,0,0,1-9.88,4.53" transform="translate(-1.26 -0.66)"/><path d="M146.32,258a68,68,0,0,1-9.88-4.47,16.88,16.88,0,0,1-4.26-3.41c-.33-.39-1.45-1.5-2.08-2.33v2.28c-.16-.3-.22,24.92-.09,26.05.72,6.32,10,11.1,16.31,12.86-3.26-2.12-6.82-3.63-9.89-6.07a16.93,16.93,0,0,1-4.14-4.54h0a19.36,19.36,0,0,0,4.64,3.82,35.62,35.62,0,0,0,9.39,4c-3.25-2.05-6.79-3.52-9.86-5.89a16.69,16.69,0,0,1-4.09-4.33,1.28,1.28,0,0,1-.11-.2,19.62,19.62,0,0,0,4.81,3.83,34.3,34.3,0,0,0,9.25,3.77c-3.25-2-6.76-3.41-9.82-5.73a16.75,16.75,0,0,1-4.19-4.33,1.43,1.43,0,0,1-.12-.21,19.75,19.75,0,0,0,4.92,3.84,33.79,33.79,0,0,0,9.21,3.62c-3.25-1.92-6.73-3.31-9.79-5.57a17,17,0,0,1-4.22-4.23,3.27,3.27,0,0,1-.18-.33,20,20,0,0,0,5.29,4,32.54,32.54,0,0,0,8.9,3.32c-3.2-1.82-6.61-3.16-9.64-5.31a17.27,17.27,0,0,1-4.36-4.21,3.63,3.63,0,0,1-.25-.44,20.09,20.09,0,0,0,5.68,4.12,32.55,32.55,0,0,0,8.57,3c-3.2-1.75-6.59-3-9.61-5.15a17.63,17.63,0,0,1-4.31-4,5.51,5.51,0,0,1-.35-.61,20,20,0,0,0,5.74,4.05,31,31,0,0,0,8.53,2.89c-3.2-1.68-6.56-2.94-9.58-5a17.63,17.63,0,0,1-4.33-3.89,6.19,6.19,0,0,1-.41-.7,19.86,19.86,0,0,0,5.84,4,29.37,29.37,0,0,0,8.48,2.76c-3.28-1.66-6.7-2.92-9.78-5a17.59,17.59,0,0,1-4.12-3.63,6.84,6.84,0,0,1-.48-.79,20.17,20.17,0,0,0,5.94,4,28.24,28.24,0,0,0,8.44,2.61c-3.24-1.56-6.59-2.77-9.63-4.75a17.72,17.72,0,0,1-4.26-3.61,6.58,6.58,0,0,1-.56-.87,20.36,20.36,0,0,0,5.92,3.88,27,27,0,0,0,8.53,2.54c-3.32-1.53-6.72-2.75-9.83-4.74a17.72,17.72,0,0,1-4.13-3.45,9.64,9.64,0,0,1-.59-.91,20.18,20.18,0,0,0,5.92,3.82,25.41,25.41,0,0,0,8.63,2.46,74.51,74.51,0,0,1-9.8-4.57,17.85,17.85,0,0,1-4.15-3.35c-.23-.27-.45-.68-.71-1a19.82,19.82,0,0,0,5.53,3.58,25.54,25.54,0,0,0,9.13,2.55" transform="translate(-1.26 -0.66)"/><path d="M183.34,208.33c1.4-.39,3.25-1,5.1-1.56s3.69-1.13,5.08-1.49l.1,0v-1.61l-.48.18c-1.38.53-3.18,1.3-5,2.1s-3.56,1.58-4.91,2.14S181,209,181,209s.94-.22,2.33-.62" transform="translate(-1.26 -0.66)"/><path d="M183.34,205.32c1.4-.39,3.25-1,5.1-1.55s3.69-1.13,5.08-1.5l.1,0v-1.61l-.48.19c-1.38.53-3.18,1.3-5,2.09s-3.56,1.59-4.91,2.14S181,206,181,206s.94-.23,2.33-.63" transform="translate(-1.26 -0.66)"/><path d="M183.34,202.32c1.4-.4,3.25-1,5.1-1.56s3.69-1.13,5.08-1.49l.1,0v-1.61l-.48.19c-1.38.53-3.18,1.3-5,2.09s-3.56,1.59-4.91,2.14-2.26.89-2.26.89.94-.22,2.33-.62" transform="translate(-1.26 -0.66)"/><path d="M183.34,211.34c1.4-.39,3.25-1,5.1-1.56s3.69-1.13,5.08-1.49l.1,0v-1.6l-.48.18c-1.38.53-3.18,1.3-5,2.1s-3.56,1.58-4.91,2.13S181,212,181,212s.94-.22,2.33-.62" transform="translate(-1.26 -0.66)"/><path d="M188.44,194.74c1.85-.58,3.69-1.13,5.08-1.49l.1,0v-1.6l-.48.18c-1.38.53-3.18,1.3-5,2.09s-3.56,1.59-4.91,2.14-2.26.89-2.26.89.94-.22,2.34-.62,3.24-1,5.09-1.56" transform="translate(-1.26 -0.66)"/><path d="M183.34,199.31c1.4-.4,3.25-1,5.1-1.56s3.69-1.13,5.08-1.49l.1,0v-1.61l-.48.19c-1.38.53-3.18,1.3-5,2.09s-3.56,1.59-4.91,2.14-2.26.89-2.26.89.94-.22,2.33-.62" transform="translate(-1.26 -0.66)"/><path d="M183.34,223.38c1.4-.4,3.25-1,5.1-1.56s3.69-1.13,5.08-1.5l.1,0v-1.61l-.48.19c-1.38.53-3.18,1.3-5,2.09s-3.56,1.59-4.91,2.14S181,224,181,224s.94-.23,2.33-.62" transform="translate(-1.26 -0.66)"/><path d="M183.34,229.39c1.4-.39,3.25-1,5.1-1.56s3.69-1.13,5.08-1.49l.1,0v-1.61l-.48.18c-1.38.53-3.18,1.3-5,2.1s-3.56,1.58-4.91,2.14S181,230,181,230s.94-.22,2.33-.62" transform="translate(-1.26 -0.66)"/><path d="M183.34,226.38c1.4-.39,3.25-1,5.1-1.56s3.69-1.13,5.08-1.49l.1,0V221.7l-.48.18c-1.38.53-3.18,1.31-5,2.1s-3.56,1.58-4.91,2.14S181,227,181,227s.94-.23,2.33-.63" transform="translate(-1.26 -0.66)"/><path d="M330.44,219.41c-8.57,0-17.25,4.28-17.25,12.45V257a256.83,256.83,0,0,1-31.7,6.47,330.73,330.73,0,0,1-43.57,3.28,387.87,387.87,0,0,1-44.3-3.39c-16.89-2.47-33.38-6.28-46-11.38,10.81-7.07,26.27-14.11,46-20.95v-3.72c-19.34,6.65-37.2,14.4-49.72,23.1l-.79-.37c1-.76,2-1.53,3-2.26,5-3.59,10.26-6.78,15.55-9.86a179.43,179.43,0,0,0-18.2,10.38l-1.65,1.13-1-.51q2.61-2.14,5.32-4.1c5-3.59,10.26-6.78,15.55-9.86a179.52,179.52,0,0,0-18.2,10.39q-2.06,1.37-4,2.85l-.74-.41a90.91,90.91,0,0,1,7.43-5.92c5-3.6,10.26-6.78,15.55-9.86a177.55,177.55,0,0,0-18.2,10.38c-2.12,1.41-4.19,2.91-6.18,4.53l-.52-.36.47-.47a85.26,85.26,0,0,1,8.88-7.18c5-3.59,10.26-6.78,15.55-9.86a179.43,179.43,0,0,0-18.2,10.38,72.74,72.74,0,0,0-8.05,6.13l-.33-.27c.71-.74,1.42-1.47,2.15-2.16a85.16,85.16,0,0,1,8.88-7.17c5-3.6,10.26-6.79,15.55-9.87a179.52,179.52,0,0,0-18.2,10.39,70.47,70.47,0,0,0-8.85,6.82l-.84.82c-.05-.05-.11-.1-.16-.16a46.38,46.38,0,0,1,3.62-3.78,84,84,0,0,1,8.88-7.18c5-3.59,10.26-6.78,15.55-9.86a179.43,179.43,0,0,0-18.2,10.38,70.56,70.56,0,0,0-8.85,6.83c-.7.64-1.38,1.32-2.05,2a42.54,42.54,0,0,1,4.67-5.15,85.26,85.26,0,0,1,8.88-7.18c5-3.59,10.26-6.78,15.55-9.86a179.43,179.43,0,0,0-18.2,10.38,71.51,71.51,0,0,0-8.85,6.83c-.7.65-1.38,1.33-2.05,2a41.9,41.9,0,0,1,4.67-5.16,85.16,85.16,0,0,1,8.88-7.17c5-3.6,10.26-6.79,15.55-9.87a179.52,179.52,0,0,0-18.2,10.39,69.63,69.63,0,0,0-8.85,6.83c-.7.64-1.38,1.32-2.05,2a41.09,41.09,0,0,1,4.67-5.15,84,84,0,0,1,8.88-7.18c5-3.59,10.26-6.78,15.55-9.86a179.43,179.43,0,0,0-18.2,10.38,70.56,70.56,0,0,0-8.85,6.83c-.7.65-1.38,1.32-2.05,2a42.54,42.54,0,0,1,4.67-5.15,86.57,86.57,0,0,1,8.88-7.18c5-3.59,10.26-6.78,15.55-9.86a179.52,179.52,0,0,0-18.2,10.39,70.47,70.47,0,0,0-8.85,6.82c-.7.65-1.38,1.33-2.05,2a41.9,41.9,0,0,1,4.67-5.16,85.16,85.16,0,0,1,8.88-7.17c5-3.6,10.26-6.79,15.55-9.87a179.52,179.52,0,0,0-18.2,10.39,69.63,69.63,0,0,0-8.85,6.83c-.7.64-1.38,1.32-2.05,2a41.09,41.09,0,0,1,4.67-5.15,85.26,85.26,0,0,1,8.88-7.18c5-3.59,10.26-6.78,15.55-9.86a179.43,179.43,0,0,0-18.2,10.38,71.51,71.51,0,0,0-8.85,6.83c-.69.64-1.37,1.31-2,2,7.61-11.24,28-22.47,61-33.57v-3.8c-46,15.23-67.7,30.58-67.7,47.37V276.5c0,2.91,1.26,10.32,12.9,16.4,13.42,7,33.84,12.06,54.8,15.1A299.82,299.82,0,0,0,237,311a305.56,305.56,0,0,0,44.54-2.93c21.22-3,42-8.12,55.52-15.2,11.65-6.08,12.9-13.49,12.9-16.4v-41c0-11-10.09-16.05-19.47-16.05m-11.72,23c-.14-.1-.24-.23-.37-.34a13.6,13.6,0,0,0,7.4,2.13,13.42,13.42,0,0,0,8.62-3c-.09.14-.16.29-.26.42-1.51,2-3.77,2.66-5.8,3.74a9.17,9.17,0,0,0,5.83-1.92l.4-.36c-1.5,2.4-4,3.16-6.23,4.36a9.25,9.25,0,0,0,6.2-2.21c-1.51,2.36-3.95,3.1-6.2,4.29a9.28,9.28,0,0,0,6.2-2.19c-1.5,2.35-4,3.08-6.2,4.27a10,10,0,0,0,1.09-.07q-2.65,1.11-5.54,2.14a26.32,26.32,0,0,1-5.14-2.71,7.91,7.91,0,0,1-1.6-1.68,11.82,11.82,0,0,0,7.29,2.5c-1.91-1-4-1.61-5.69-2.95a7.91,7.91,0,0,1-1.6-1.68,11.81,11.81,0,0,0,7.29,2.49c-1.91-1-4-1.6-5.69-2.94a8.22,8.22,0,0,1-1.61-1.68,11.82,11.82,0,0,0,7.3,2.48c-1.91-.95-4-1.6-5.69-2.93a8,8,0,0,1-1.61-1.68,11.87,11.87,0,0,0,7.3,2.47c-1.9-.95-3.94-1.59-5.69-2.92m-1.61,11.08a10.6,10.6,0,0,0,2.58,1.55l-.8.26-.17-.11a8.06,8.06,0,0,1-1.61-1.7m.22,2.3-.08,0-.12-.17.2.15m1.39-2.73a8.06,8.06,0,0,1-1.61-1.7,11.74,11.74,0,0,0,6.17,2.48c-.68.24-1.36.48-2.06.71a13.53,13.53,0,0,1-2.5-1.49m28,15.15v8.31c0,1.74-.8,7.81-11.05,13.16-22.78,11.89-66.4,18.11-97.71,18.11S163,301.55,140.2,289.66c-10.25-5.35-11-11.42-11-13.16V243.92a26.62,26.62,0,0,0,9.42,7.79c23.39,12.21,67.67,18.59,99.34,18.59s76-6.38,99.33-18.59l.05,0s0,0,.05,0l.29-.17c.18-.12.44-.27.83-.54a20.22,20.22,0,0,0,2.86-2.38,15.87,15.87,0,0,0,3.11-4.52,15.55,15.55,0,0,0,1-3,16.39,16.39,0,0,0,.38-3.26c0-.55,0-1.09,0-1.61l-.05-.84-.09-.73a10.84,10.84,0,0,0-.92-3.13,7.8,7.8,0,0,0-1.7-2.39,8.09,8.09,0,0,0-2-1.43,9.45,9.45,0,0,0-3.3-1,6.33,6.33,0,0,0-.94-.07h-.33l.3.14c.2.11.49.21.85.41s.79.42,1.27.69a13,13,0,0,1,1.5,1,8.63,8.63,0,0,1,1.48,1.48,8,8,0,0,1,1,1.72,8.66,8.66,0,0,0-6.38-3.38,13.94,13.94,0,0,1,5.29,4,10.25,10.25,0,0,1,.71,1.18,8.56,8.56,0,0,0-6-2.92,13.94,13.94,0,0,1,5.29,4,9.58,9.58,0,0,1,.71,1.19,9,9,0,0,0-4.39-2.7V233a1.62,1.62,0,1,0-3.23,0c0,5-4.58,7.6-9.1,7.6a11.28,11.28,0,0,1-4.08-.76c.6-.38,1.23-.73,1.88-1.07a7.5,7.5,0,0,0-2.85.62,9,9,0,0,1-.84-.52,20.15,20.15,0,0,1,3.69-2.35,7.79,7.79,0,0,0-4.59,1.62l-.33-.32a16,16,0,0,1,4.92-3.56,8.05,8.05,0,0,0-5.68,2.62l-.1-.15c1.43-2.29,3.5-3.51,5.78-4.72a8.17,8.17,0,0,0-6.11,3c1.42-2.67,3.65-4,6.11-5.27a8.22,8.22,0,0,0-6.13,3c1.43-2.68,3.67-4,6.13-5.27a8.64,8.64,0,0,0-6.08,2.9c1.43-2.6,3.65-3.86,6.08-5.15a8.54,8.54,0,0,0-5.82,2.63c2.36-3.23,7.55-4.9,12.71-4.9,7.82,0,16.24,3.9,16.24,12.47Zm-4.92-28.55a9.58,9.58,0,0,1,.71,1.19,9,9,0,0,0-4.39-2.7V236.5a11.21,11.21,0,0,1,3.68,3.14m-3.68-3.81V234.2a11.09,11.09,0,0,1,3.68,3.14,9.58,9.58,0,0,1,.71,1.19,9,9,0,0,0-4.39-2.7m3.68,6.11c.09.14.16.28.25.41l-.09.18a.13.13,0,0,1,0,.06,8.69,8.69,0,0,0-3.8-2.16V238.8a11.21,11.21,0,0,1,3.68,3.14m-.52,1.71c-.1.15-.21.29-.32.44a8.43,8.43,0,0,0-2.84-1.35V241.1a12,12,0,0,1,3.16,2.55m-1,1.27c-.21.24-.43.47-.64.69a8.24,8.24,0,0,0-1.53-.56v-1.64a14,14,0,0,1,2.17,1.51m-1.3,1.32c-.3.27-.59.51-.87.73v-1.26c.3.17.58.35.87.53" transform="translate(-1.26 -0.66)"/><path d="M183.34,214.35c1.4-.39,3.25-1,5.1-1.56s3.69-1.13,5.08-1.49l.1,0v-1.6l-.48.18c-1.38.53-3.18,1.3-5,2.1s-3.56,1.58-4.91,2.13S181,215,181,215s.94-.22,2.33-.62" transform="translate(-1.26 -0.66)"/><path d="M183.34,220.37c1.4-.4,3.25-1,5.1-1.56s3.69-1.13,5.08-1.5l.1,0v-1.61l-.48.19c-1.38.53-3.18,1.3-5,2.09s-3.56,1.59-4.91,2.14S181,221,181,221s.94-.22,2.33-.62" transform="translate(-1.26 -0.66)"/><path d="M183.34,217.36c1.4-.4,3.25-1,5.1-1.56s3.69-1.13,5.08-1.49l.1,0v-1.61l-.48.19c-1.38.53-3.18,1.3-5,2.09s-3.56,1.59-4.91,2.14S181,218,181,218s.94-.22,2.33-.62" transform="translate(-1.26 -0.66)"/><path d="M146.84,158.23a26.15,26.15,0,0,0-9.12,2.47,19.78,19.78,0,0,0-5.54,3.45c.26-.34.48-.74.71-1a17.66,17.66,0,0,1,4.15-3.24,76.17,76.17,0,0,1,9.8-4.4,26.52,26.52,0,0,0-8.63,2.37,20.18,20.18,0,0,0-5.92,3.68c.21-.31.4-.65.59-.87a17.72,17.72,0,0,1,4.13-3.33c3.11-1.92,6.51-3.09,9.83-4.56a27.7,27.7,0,0,0-8.53,2.44,20.57,20.57,0,0,0-5.92,3.74,8.14,8.14,0,0,1,.56-.84,17.85,17.85,0,0,1,4.26-3.48c3-1.9,6.39-3.07,9.63-4.58a29,29,0,0,0-8.44,2.52,20.15,20.15,0,0,0-5.94,3.84,6.29,6.29,0,0,1,.48-.76,17.28,17.28,0,0,1,4.12-3.5c3.08-2,6.5-3.22,9.78-4.81a30.41,30.41,0,0,0-8.48,2.65,20.15,20.15,0,0,0-5.84,3.87,5.62,5.62,0,0,1,.41-.67,17.51,17.51,0,0,1,4.33-3.76c3-2,6.38-3.18,9.58-4.81a32.19,32.19,0,0,0-8.53,2.79,20.19,20.19,0,0,0-5.74,3.91,5.11,5.11,0,0,1,.35-.59,17.22,17.22,0,0,1,4.31-3.85c3-2,6.41-3.28,9.61-5a33.39,33.39,0,0,0-8.57,2.92,20,20,0,0,0-5.68,4c.08-.15.17-.3.25-.42a17.2,17.2,0,0,1,4.36-4.06c3-2.07,6.44-3.37,9.64-5.12a33.6,33.6,0,0,0-8.9,3.2,20,20,0,0,0-5.29,3.85q.09-.18.18-.33a16.83,16.83,0,0,1,4.22-4.07c3.06-2.18,6.54-3.52,9.79-5.37a34.45,34.45,0,0,0-9.21,3.49,19.73,19.73,0,0,0-4.92,3.7l.12-.2a16.65,16.65,0,0,1,4.19-4.18c3.06-2.23,6.57-3.61,9.82-5.52a35.27,35.27,0,0,0-9.25,3.63,19.62,19.62,0,0,0-4.81,3.7,1.18,1.18,0,0,1,.11-.19,16.21,16.21,0,0,1,4.09-4.17c3.07-2.29,6.61-3.71,9.86-5.68a36.23,36.23,0,0,0-9.39,3.83,19.51,19.51,0,0,0-4.64,3.68h0a16.78,16.78,0,0,1,4.14-4.39c3.07-2.34,6.63-3.8,9.89-5.84-6.33,1.7-15.58,6.3-16.31,12.4-.13,1.08-.07,25.39.09,25.1v2.56c.64-.81,1.75-2.23,2.08-2.61a16.87,16.87,0,0,1,4.26-3.29,72.21,72.21,0,0,1,9.88-4.31" transform="translate(-1.26 -0.66)"/><path d="M329.58,155.43a74.82,74.82,0,0,1,9.8,4.4,17.88,17.88,0,0,1,4.15,3.23c.23.26.45.66.71,1a20,20,0,0,0-5.54-3.45,26.36,26.36,0,0,0-9.12-2.46,71,71,0,0,1,9.88,4.31,16.83,16.83,0,0,1,4.26,3.28c.33.38,1.44,1.45,2.08,2.26v-2.21c.16.29.22-24,.09-25.1-.73-6.09-10-10.69-16.31-12.39,3.26,2,6.82,3.49,9.89,5.84a16.91,16.91,0,0,1,4.14,4.38h0a19.51,19.51,0,0,0-4.64-3.68,36.26,36.26,0,0,0-9.39-3.84c3.25,2,6.79,3.39,9.86,5.68a16.41,16.41,0,0,1,4.09,4.18.86.86,0,0,1,.11.19,19.38,19.38,0,0,0-4.81-3.7,35.27,35.27,0,0,0-9.25-3.63c3.25,1.91,6.76,3.28,9.82,5.52a16.65,16.65,0,0,1,4.19,4.18l.12.2a19.49,19.49,0,0,0-4.92-3.7,34.12,34.12,0,0,0-9.21-3.49c3.25,1.85,6.73,3.19,9.79,5.36a16.87,16.87,0,0,1,4.22,4.08c.06.09.12.21.18.32a19.94,19.94,0,0,0-5.29-3.84,33.27,33.27,0,0,0-8.9-3.21c3.2,1.76,6.61,3.05,9.64,5.13a17,17,0,0,1,4.36,4,4.09,4.09,0,0,1,.25.43,19.81,19.81,0,0,0-5.68-4,33,33,0,0,0-8.57-2.92c3.2,1.69,6.59,2.94,9.61,5a17.26,17.26,0,0,1,4.31,3.86,4.22,4.22,0,0,1,.35.58,19.87,19.87,0,0,0-5.75-3.9,31.65,31.65,0,0,0-8.52-2.79c3.2,1.62,6.56,2.84,9.58,4.81a17.47,17.47,0,0,1,4.33,3.75,5.07,5.07,0,0,1,.41.68,20,20,0,0,0-5.84-3.87,30.43,30.43,0,0,0-8.48-2.66c3.28,1.6,6.7,2.82,9.78,4.81a17.51,17.51,0,0,1,4.12,3.5,6.29,6.29,0,0,1,.48.76,20.12,20.12,0,0,0-5.94-3.83,29,29,0,0,0-8.44-2.52c3.23,1.5,6.59,2.67,9.63,4.57a18.34,18.34,0,0,1,4.26,3.48,8.37,8.37,0,0,1,.56.85,20.38,20.38,0,0,0-5.92-3.75,27.7,27.7,0,0,0-8.53-2.44c3.32,1.47,6.72,2.65,9.83,4.56a17.72,17.72,0,0,1,4.13,3.33c.19.23.38.57.59.88a20.42,20.42,0,0,0-5.92-3.69,26.26,26.26,0,0,0-8.63-2.36" transform="translate(-1.26 -0.66)"/><polygon points="280.33 192.8 280.33 194.19 292.52 190.29 280.33 192.8"/><polygon points="280.33 198.22 280.33 199.61 292.52 195.71 280.33 198.22"/><polygon points="280.33 195.51 280.33 196.9 292.52 193 280.33 195.51"/><polygon points="280.33 206.35 280.33 207.74 292.52 203.84 280.33 206.35"/><polygon points="280.33 200.93 280.33 202.32 292.52 198.42 280.33 200.93"/><polygon points="280.33 203.64 280.33 205.03 292.52 201.13 280.33 203.64"/><polygon points="280.33 190.09 280.33 191.48 292.52 187.58 280.33 190.09"/><polygon points="280.33 176.53 280.33 177.92 292.52 174.02 280.33 176.53"/><path d="M337.08,126.07c-13.57-6.38-34.31-11-55.53-13.7a288.54,288.54,0,0,0-48-2.88c-23.68.71-39.83,3-39.83,3-21,2.73-41.38,7.3-54.79,13.6-11.65,5.48-12.9,12.16-12.9,14.77v37c0,9.94,10.09,14.46,19.47,14.46h0a24.18,24.18,0,0,0,11.6-2.68c3.65-2,5.65-5.06,5.65-8.54V158.44a281.72,281.72,0,0,1,31-5.73s14.12-2.65,42.94-2.8,44.93,2.71,44.93,2.71c14.56,1.89,28.86,4.67,40.69,8.32-1.57.61-3.2,1.22-4.93,1.83-9.95,3.51-22.06,6.95-35.72,10.45v3.3c18.72-4.78,34-9.32,45.38-14l1.09.39c-4.55,2.13-9.23,4-13.94,5.71,5.1-1.57,10.17-3.26,15.11-5.29l1.9.73c-.47.24-.93.48-1.4.7a166.12,166.12,0,0,1-15.61,6.49,155.21,155.21,0,0,0,18.25-6.61l.07,0,1.47.62c-1.37.76-2.77,1.48-4.18,2.17a166.12,166.12,0,0,1-15.61,6.49,155.21,155.21,0,0,0,18.25-6.61c1-.45,2-.93,2.95-1.42l.62.28.49.25c-2.16,1.33-4.42,2.53-6.7,3.64-5.07,2.47-10.32,4.53-15.61,6.49a155.26,155.26,0,0,0,18.25-6.62c1.86-.84,3.71-1.75,5.5-2.76.26.14.52.29.76.44l0,0a68.12,68.12,0,0,1-8.87,5.06,168.75,168.75,0,0,1-15.61,6.48,155.21,155.21,0,0,0,18.25-6.61,61.62,61.62,0,0,0,7.66-4.06l.5.36c-.63.49-1.28,1-1.93,1.4a69.29,69.29,0,0,1-8.87,5.06,168.75,168.75,0,0,1-15.61,6.48,155.21,155.21,0,0,0,18.25-6.61,57.44,57.44,0,0,0,9-5c.16-.11.3-.23.45-.34l.28.23a35.82,35.82,0,0,1-3.54,2.76,68.05,68.05,0,0,1-8.87,5.05,166.12,166.12,0,0,1-15.61,6.49,155.21,155.21,0,0,0,18.25-6.61,56.69,56.69,0,0,0,9-5c.68-.47,1.35-1,2-1.49l.06.07a31.16,31.16,0,0,1-4.88,4.08,68.05,68.05,0,0,1-8.87,5.05A168.83,168.83,0,0,1,314.12,187a157,157,0,0,0,18.25-6.61,57.49,57.49,0,0,0,9-5,31.07,31.07,0,0,0,2.74-2.14,28.16,28.16,0,0,1-5.55,4.79,67,67,0,0,1-8.87,5.06c-5.07,2.47-10.32,4.53-15.61,6.49A155.26,155.26,0,0,0,332.37,183a56.63,56.63,0,0,0,9-4.95,29.41,29.41,0,0,0,2.74-2.15,28.21,28.21,0,0,1-5.55,4.8,69.29,69.29,0,0,1-8.87,5.06,168.75,168.75,0,0,1-15.61,6.48,155.21,155.21,0,0,0,18.25-6.61,57.44,57.44,0,0,0,9-4.95,31.19,31.19,0,0,0,2.74-2.15,28.55,28.55,0,0,1-5.55,4.8,69.29,69.29,0,0,1-8.87,5.06,168.75,168.75,0,0,1-15.61,6.48,155.21,155.21,0,0,0,18.25-6.61,57.44,57.44,0,0,0,9-4.95,31.19,31.19,0,0,0,2.74-2.15,28.55,28.55,0,0,1-5.55,4.8,68.05,68.05,0,0,1-8.87,5,166.12,166.12,0,0,1-15.61,6.49,155.21,155.21,0,0,0,18.25-6.61,56.69,56.69,0,0,0,9-5,28.07,28.07,0,0,0,3.37-2.7c-3.72,5.13-12.8,10.21-27.47,15.38-9.95,3.5-22.06,6.94-35.72,10.44v3.31c43.3-11.08,68.39-20.78,68.39-34.53v-37c0-2.61-1.26-9.29-12.9-14.77m-179.9,45.51c.14.1.24.21.37.31a14.7,14.7,0,0,0-7.4-1.92,14.31,14.31,0,0,0-8.62,2.73c.09-.13.16-.26.26-.38,1.51-1.76,3.77-2.4,5.79-3.37a9.82,9.82,0,0,0-5.82,1.74,4.31,4.31,0,0,0-.4.32c1.5-2.17,4-2.85,6.22-3.93a9.91,9.91,0,0,0-6.19,2c1.51-2.11,4-2.79,6.19-3.86a9.91,9.91,0,0,0-6.19,2c1.5-2.12,4-2.78,6.19-3.85a9.77,9.77,0,0,0-1.08.06c1.77-.66,3.61-1.31,5.54-1.92a27.77,27.77,0,0,1,5.14,2.43,7.76,7.76,0,0,1,1.6,1.52,12.71,12.71,0,0,0-7.29-2.26,34.68,34.68,0,0,1,5.69,2.66,7.51,7.51,0,0,1,1.6,1.52,12.7,12.7,0,0,0-7.29-2.25,35.48,35.48,0,0,1,5.69,2.65,7.82,7.82,0,0,1,1.61,1.52,12.8,12.8,0,0,0-7.3-2.24,35.37,35.37,0,0,1,5.69,2.64,7.82,7.82,0,0,1,1.61,1.52,12.79,12.79,0,0,0-7.3-2.23,36.2,36.2,0,0,1,5.69,2.63m1.6-10a11.06,11.06,0,0,0-2.58-1.4L157,160l.17.11a7.31,7.31,0,0,1,1.6,1.53m-.21-2.07.08,0,.12.16-.2-.14M157.18,162a7.89,7.89,0,0,1,1.61,1.54,12.49,12.49,0,0,0-6.17-2.24l2.06-.64a14.65,14.65,0,0,1,2.5,1.34m189.56-11.83v20a26.41,26.41,0,0,0-9.42-7c-23.39-11-67.68-16.75-99.34-16.75s-75.95,5.76-99.34,16.75l0,0a8.66,8.66,0,0,0-1.69,1,14.34,14.34,0,0,0-6.78,13.6,8.59,8.59,0,0,0,2.63,5.7,10,10,0,0,0,6.66,2.31c-2.12-.92-4.31-1.9-5.72-3.81a6,6,0,0,1-.67-1.14,9,9,0,0,0,6.39,3,13.87,13.87,0,0,1-5.29-3.64,8.27,8.27,0,0,1-.71-1.07,8.93,8.93,0,0,0,6,2.64,14,14,0,0,1-5.29-3.64,9,9,0,0,1-.71-1.07,9.21,9.21,0,0,0,4.38,2.43V180a1.62,1.62,0,0,0,3.24,0c0-4.5,4.58-6.85,9.1-6.85a12.25,12.25,0,0,1,3.68.56l-1.48.75a8.57,8.57,0,0,0,2.41-.41,8.77,8.77,0,0,1,1,.5,23.13,23.13,0,0,1-3.43,1.94,8.43,8.43,0,0,0,4.36-1.31l.37.3a16.55,16.55,0,0,1-4.73,3,8.41,8.41,0,0,0,5.52-2.22l.14.18c-1.42,1.95-3.44,3-5.66,4.07a8.55,8.55,0,0,0,6.11-2.73c-1.42,2.41-3.65,3.58-6.11,4.76a8.56,8.56,0,0,0,6.12-2.72c-1.42,2.41-3.66,3.57-6.12,4.75a9.05,9.05,0,0,0,6.08-2.62c-1.43,2.35-3.65,3.49-6.08,4.65a9.08,9.08,0,0,0,6.27-2.75l.14-.18a8.42,8.42,0,0,1-3.28,3.05,21.28,21.28,0,0,1-10,2.27c-7.82,0-16.24-3.52-16.24-11.24v-37c0-1.56.8-7,11.05-11.85,22.78-10.71,66.4-16.32,97.71-16.32s74.93,5.61,97.72,16.32c10.25,4.82,11,10.29,11,11.85Zm-212.6,23.91a8.27,8.27,0,0,1-.71-1.07,9.21,9.21,0,0,0,4.38,2.43v1.47a10.82,10.82,0,0,1-3.67-2.83m3.67,3.44V179a11,11,0,0,1-3.67-2.84,8.27,8.27,0,0,1-.71-1.07,9.31,9.31,0,0,0,4.38,2.44M134.14,172c-.09-.12-.16-.25-.24-.37a2.43,2.43,0,0,1,.14-.2,9.1,9.1,0,0,0,3.77,1.93v1.47a11.08,11.08,0,0,1-3.67-2.83m.54-1.52c.08-.12.14-.24.23-.35l.06-.07a8.82,8.82,0,0,0,2.84,1.22v1.47a11.83,11.83,0,0,1-3.13-2.27m1-1.16c.21-.21.42-.42.64-.62a8.31,8.31,0,0,0,1.51.49v1.48a13.37,13.37,0,0,1-2.15-1.35m1.32-1.19.83-.63v1.1c-.28-.15-.56-.3-.83-.47" transform="translate(-1.26 -0.66)"/><polygon points="280.33 179.25 280.33 180.63 292.52 176.73 280.33 179.25"/><polygon points="280.33 181.96 280.33 183.35 292.52 179.44 280.33 181.96"/><polygon points="280.33 184.67 280.33 186.06 292.52 182.15 280.33 184.67"/><polygon points="280.33 187.38 280.33 188.77 292.52 184.87 280.33 187.38"/><path d="M174.64,135.15a8.4,8.4,0,0,0,2.56-2.68,8.29,8.29,0,0,0,1.18-4.16,5.4,5.4,0,0,0-2.2-4.66,7.08,7.08,0,0,0-5.58-.93l-5.66,1a1.08,1.08,0,0,0-1,1.07v.76a1.23,1.23,0,0,0,.85,1.17c.11,0,.29.12.29.56v19.47a1.14,1.14,0,0,1-.46.91,1.67,1.67,0,0,0-.68,1.23v.81a.88.88,0,0,0,.31.71.83.83,0,0,0,.56.2l.21,0,5.46-1a13,13,0,0,0,4-1.5,8.59,8.59,0,0,0,3.21-3.12,8.21,8.21,0,0,0,1.15-4.19A5.44,5.44,0,0,0,174.64,135.15Zm-4.14-.92V126.1a2.93,2.93,0,0,1,1.18.05,1.65,1.65,0,0,1,.86.93,5.87,5.87,0,0,1,.45,2.54C173,132.15,172.2,133.63,170.5,134.23Zm0,3.3a2.34,2.34,0,0,1,2.07.6,5.23,5.23,0,0,1,.81,3.34,7.68,7.68,0,0,1-.41,2.74,3.08,3.08,0,0,1-1.11,1.47,5.08,5.08,0,0,1-1.36.62Z" transform="translate(-1.26 -0.66)"/><path d="M196.36,142.91c-.38-.15-.47-.26-.47-.27a1.71,1.71,0,0,1-.19-.56l-4.86-21.68a.92.92,0,0,0-1-.74,1.18,1.18,0,0,0-.4.13l-3,1.69a1,1,0,0,0-.61.89s0,.28.1.69l.15,1-4.14,19.54a1.77,1.77,0,0,1-.7,1.13,1.37,1.37,0,0,0-.68,1.15v.86a1,1,0,0,0,.31.72,1.13,1.13,0,0,0,.77.25,1.37,1.37,0,0,0,.28,0l3.74-.49a1.11,1.11,0,0,0,1.09-1.1v-.73a1.51,1.51,0,0,0-.83-1.17,1.4,1.4,0,0,1-.49-.42l0-.19.65-3,3.64-.47.61,2.73a1.22,1.22,0,0,1,0,.26c0,.15-.13.31-.38.47a1.51,1.51,0,0,0-.9,1.27v.73a1,1,0,0,0,.32.75,1.08,1.08,0,0,0,.9.22l6-.78a1,1,0,0,0,.91-1.08V144A1.17,1.17,0,0,0,196.36,142.91Zm-7.4-6.09-2.09.27,1-4.89Z" transform="translate(-1.26 -0.66)"/><path d="M214.26,141.35a1.34,1.34,0,0,1-.55-.39,3.79,3.79,0,0,1-.4-1.09L212,134.76a5.67,5.67,0,0,0-1.35-2.63,5,5,0,0,0-1.12-.83,7.23,7.23,0,0,0,4.09-6.83,5.83,5.83,0,0,0-2.36-5.11c-1.52-1.06-3.71-1.48-6.51-1.23l-4.72.4A1.06,1.06,0,0,0,199,119.6v.72a1.32,1.32,0,0,0,.81,1.21.61.61,0,0,1,.34.63v19.47a.94.94,0,0,1-.41.81,1.52,1.52,0,0,0-.74,1.23v.77a1,1,0,0,0,.29.72,1,1,0,0,0,.69.24h.12l5.62-.48a1.06,1.06,0,0,0,1.06-1.07v-.74a1.32,1.32,0,0,0-.81-1.19.63.63,0,0,1-.35-.65v-8.16a.56.56,0,0,1,.15.1c.08.06.35.36.67,1.54l2.46,8.83a1.21,1.21,0,0,0,1.35.94l3.59-.3a1,1,0,0,0,1-1.05v-.93A1,1,0,0,0,214.26,141.35Zm-8.67-20a2.63,2.63,0,0,1,1.78.51c.27.22.71.93.71,3.1a6.29,6.29,0,0,1-.79,3.66,2.82,2.82,0,0,1-1.7,1Z" transform="translate(-1.26 -0.66)"/><path d="M227.37,129.81a7.1,7.1,0,0,0,2.6-2.34,7.44,7.44,0,0,0,1.21-4,6.13,6.13,0,0,0-2.18-4.9,8,8,0,0,0-5.62-1.67l-5.75.24a1,1,0,0,0-1.07,1v.76a1.36,1.36,0,0,0,.8,1.21.66.66,0,0,1,.35.68v19.47a.85.85,0,0,1-.42.78,1.5,1.5,0,0,0-.73,1.2V143a.91.91,0,0,0,.95.95h.05l5.54-.23a12.13,12.13,0,0,0,4.12-.95A7.2,7.2,0,0,0,231.7,136,6.25,6.25,0,0,0,227.37,129.81Zm-4.19-1.42v-8.16a3.41,3.41,0,0,1,1.14.21,2.15,2.15,0,0,1,1,1.12,6.43,6.43,0,0,1,.46,2.63C225.73,127.32,224.42,128.17,223.18,128.39Zm2.95,7.7a6.85,6.85,0,0,1-.42,2.66,2.47,2.47,0,0,1-1.07,1.26,4.35,4.35,0,0,1-1.46.44v-8.79a2.72,2.72,0,0,1,2.1.93A5.77,5.77,0,0,1,226.13,136.09Z" transform="translate(-1.26 -0.66)"/><path d="M247.07,135.85h-.78a1.31,1.31,0,0,0-1.27,1,10.08,10.08,0,0,1-1.16,2.94,2.06,2.06,0,0,1-1.39.35l-1.8,0v-9.11h.06a1.37,1.37,0,0,1,.69.15s.2.17.45,1.07a2.55,2.55,0,0,0,.42,1,1.09,1.09,0,0,0,.87.35H244a1.1,1.1,0,0,0,.79-.29,1,1,0,0,0,.29-.75v-6.2a1,1,0,0,0-1.12-1.06h-.79a1.07,1.07,0,0,0-.77.22,1.68,1.68,0,0,0-.38.79,6.19,6.19,0,0,1-.54,1.41,1.33,1.33,0,0,1-.62.09h-.19v-8l1.62,0c1.18,0,1.43.45,1.51.6a6,6,0,0,1,.63,2,1.11,1.11,0,0,0,1.13,1h.67a1.28,1.28,0,0,0,.9-.23,1.21,1.21,0,0,0,.3-.94v-4.83c0-.16-.07-.94-1.24-.95l-.84,0c-.45,0-.77,0-.92,0l-9.28-.09a1.07,1.07,0,0,0-.82.29.87.87,0,0,0-.27.66v.79a1.4,1.4,0,0,0,.75,1.21.79.79,0,0,1,.37.74v19.47c0,.47-.18.6-.24.64a1.73,1.73,0,0,0-.88,1.29v.72a1,1,0,0,0,1.08,1.05l12.37.12h0a.63.63,0,0,0,.45-.18.65.65,0,0,0,.2-.47v-5.91A1,1,0,0,0,247.07,135.85Z" transform="translate(-1.26 -0.66)"/><path d="M266.52,141.66a1.67,1.67,0,0,1-.53-.42,2,2,0,0,1-.22-.66L260.88,118a1,1,0,0,0-.91-.81.85.85,0,0,0-.43.06l-3.06,1.11a.91.91,0,0,0-.69.87,6.3,6.3,0,0,0,.09.71l.15,1-4.17,18.74a1.21,1.21,0,0,1-.62.91,1.21,1.21,0,0,0-.77,1.12v.85c0,.17.06,1,1.25,1.08l3.77.23a1.18,1.18,0,0,0,.91-.28,1,1,0,0,0,.3-.73v-.72a1.71,1.71,0,0,0-.77-1.23,1.86,1.86,0,0,1-.56-.61s0-.1,0-.18l.63-2.73,3.67.23.65,3c0,.11,0,.2,0,.28s0,.16-.29.29c-.86.34-1,.9-1,1.21v.72a1,1,0,0,0,1.09,1.07l6,.37h.07a.89.89,0,0,0,.65-.25,1,1,0,0,0,.31-.78v-.72A1.29,1.29,0,0,0,266.52,141.66ZM259,134.15l-2.12-.12,1.07-4.72Z" transform="translate(-1.26 -0.66)"/><path d="M284.41,143.5a2.12,2.12,0,0,1-.61-.56,4.64,4.64,0,0,1-.41-1.21l-1.31-5.35a7.1,7.1,0,0,0-1.31-2.83,7.32,7.32,0,0,0-1.14-1.05c2.67-1,4.07-3.05,4.07-6.12a7,7,0,0,0-2.3-5.46,11.24,11.24,0,0,0-6.44-2.44l-4.71-.49a1.08,1.08,0,0,0-.88.24,1,1,0,0,0-.31.74v.72a1.52,1.52,0,0,0,.74,1.25.91.91,0,0,1,.41.81v19.47a.62.62,0,0,1-.33.63,1.34,1.34,0,0,0-.82,1.19v.77a1,1,0,0,0,1,1l5.61.59a1.12,1.12,0,0,0,.88-.24,1,1,0,0,0,.3-.74v-.74a1.51,1.51,0,0,0-.73-1.23.94.94,0,0,1-.42-.83v-8l.1.09a4.3,4.3,0,0,1,.71,1.75l2.46,9.29a1.38,1.38,0,0,0,1.22,1.08l3.58.37h.15a.94.94,0,0,0,1-1v-.94A1,1,0,0,0,284.41,143.5Zm-6.25-17.42c0,2.16-.41,3.07-.75,3.45a2.25,2.25,0,0,1-1.73.64v-8.28a3.33,3.33,0,0,1,1.73.87C277.75,123.12,278.16,124,278.16,126.08Z" transform="translate(-1.26 -0.66)"/><path d="M293.36,120.74l-5.59-.78a1.07,1.07,0,0,0-.89.22,1,1,0,0,0-.31.74v.72a1.54,1.54,0,0,0,.72,1.26,1,1,0,0,1,.42.84v19.47a.57.57,0,0,1-.32.6,1.29,1.29,0,0,0-.82,1.18v.77a1,1,0,0,0,.95,1l5.58.78.22,0a1,1,0,0,0,.67-.24,1,1,0,0,0,.32-.74v-.74a1.55,1.55,0,0,0-.72-1.23,1,1,0,0,1-.43-.87V124.32a.57.57,0,0,1,.32-.59,1.31,1.31,0,0,0,.83-1.19v-.76A1,1,0,0,0,293.36,120.74Z" transform="translate(-1.26 -0.66)"/><path d="M312,147.9a1.48,1.48,0,0,1-.78-1.22l-4.82-23.18a1,1,0,0,0-1.27-.83l-3,.76a.9.9,0,0,0-.76.86,6.62,6.62,0,0,0,.09.72l.15,1-4.11,18.25c-.13.56-.38.71-.55.77a1.15,1.15,0,0,0-.82,1.1V147c0,.28.11,1,1.16,1.15l3.71.66a1.13,1.13,0,0,0,1-.19,1,1,0,0,0,.33-.75v-.72a1.83,1.83,0,0,0-.73-1.26c-.55-.51-.58-.74-.58-.74a.75.75,0,0,1,0-.17l.61-2.57,3.6.65.65,3.11a1.58,1.58,0,0,1,0,.28s0,.12-.22.19c-.95.26-1.05.9-1.05,1.16v.73a1.13,1.13,0,0,0,1,1.12l5.94,1.06a.62.62,0,0,0,.19,0,.91.91,0,0,0,.58-.2,1,1,0,0,0,.33-.79V149A1.41,1.41,0,0,0,312,147.9Zm-7.53-8.39-2.06-.37,1-4.54Z" transform="translate(-1.26 -0.66)"/><path d="M228.54,302.31a3.6,3.6,0,0,1-1.14-.76,4.62,4.62,0,0,1-.7-1.5l-2.19-6.54a7.72,7.72,0,0,0-2.16-3.41,10.21,10.21,0,0,0-2-1.35c4.58-1.09,6.9-3.59,6.9-7.44a7.59,7.59,0,0,0-3.78-6.62c-2.4-1.57-5.92-2.54-10.46-2.89l-7.88-.61a1.43,1.43,0,0,0-1.16.31,1,1,0,0,0-.32.75v.88a1.7,1.7,0,0,0,1.13,1.46c.71.38.8.78.8,1.06v23.78c0,.29-.09.62-.73.88-1,.38-1.2.94-1.2,1.35v.94c0,.5.33,1,1.26,1.12l9.38.72a1.51,1.51,0,0,0,1.17-.3,1,1,0,0,0,.31-.75v-.9c0-.57-.38-1.06-1.12-1.44s-.8-.78-.8-1.08V289.85a2.71,2.71,0,0,1,1,.47A4.64,4.64,0,0,1,216,292.5l4.11,11.36a1.78,1.78,0,0,0,1.67,1.16l6,.46H228a1.21,1.21,0,0,0,.87-.3,1,1,0,0,0,.31-.75V303.3A1.1,1.1,0,0,0,228.54,302.31ZM218.83,281c0,2.11-.44,3.54-1.29,4.23a5.54,5.54,0,0,1-3.72.89V275.61a7.58,7.58,0,0,1,3.71,1.24C218.39,277.51,218.83,278.89,218.83,281Z" transform="translate(-1.26 -0.66)"/><path d="M235.83,277.15a.67.67,0,0,0-.72-.09c-2.72,1.35-4.05,2.8-4.05,4.45a2.08,2.08,0,0,0,.82,1.67,3,3,0,0,0,1.84.61h.07a3.18,3.18,0,0,0,1.67-.45,1.72,1.72,0,0,0,.9-1.5,1.85,1.85,0,0,0-1.4-1.77,8.89,8.89,0,0,1,1.65-1.09.67.67,0,0,0,.33-.51.63.63,0,0,0-.22-.55Z" transform="translate(-1.26 -0.66)"/><path d="M269.17,274.81c.75-.39,1.13-.88,1.13-1.45v-.92a1,1,0,0,0-.31-.73,1.33,1.33,0,0,0-1.05-.3l-11,.72a.64.64,0,0,0-.59.5l-2.77,12.14-2.76-11.7a.66.66,0,0,0-.68-.5l-10.86.71c-1.28.08-1.38.91-1.38,1.16v.89c0,.42.2,1,1.19,1.37.64.26.73.58.73.87v23.79c0,.27-.08.68-.8,1.07s-1.12.87-1.12,1.43v.94a1,1,0,0,0,.3.73,1.25,1.25,0,0,0,.88.3h.17l6.71-.44c1.29-.08,1.39-.91,1.39-1.16v-.91c0-.41-.21-1-1.19-1.35-.64-.26-.73-.59-.73-.89V282.41l5.12,22.13a.63.63,0,0,0,.68.5l2.39-.15a.66.66,0,0,0,.6-.5l5.2-22.88v18.57c0,.27-.09.68-.83,1.07s-1.09.88-1.09,1.43v.94a1,1,0,0,0,.31.74,1.33,1.33,0,0,0,1,.29l9.05-.59c1.29-.09,1.39-.91,1.39-1.16v-.91c0-.41-.2-1-1.17-1.36-.67-.25-.76-.59-.76-.88V275.86C268.37,275.59,268.46,275.2,269.17,274.81Z" transform="translate(-1.26 -0.66)"/></g></svg>